<?xml version="1.0" standalone="no"?>
<!DOCTYPE svg PUBLIC "-//W3C//DTD SVG 1.1//EN" "http://www.w3.org/Graphics/SVG/1.1/DTD/svg11.dtd" >
<svg>
<metadata>
Created by FontForge 20120731 at Thu Nov  7 18:18:01 2019
 By www
Copyright (c) 2012 by Style-7. All rights reserved. http://www.styleseven.com
</metadata>
<defs>
<font id="LEDDisplay7" horiz-adv-x="720" >
  <font-face 
    font-family="LED Display7"
    font-weight="400"
    font-stretch="normal"
    units-per-em="1000"
    panose-1="2 0 0 9 0 0 0 0 0 0"
    ascent="750"
    descent="-250"
    x-height="580"
    cap-height="580"
    bbox="0 0 700 580"
    underline-thickness="100"
    underline-position="220"
    unicode-range="U+0020-2122"
  />
<missing-glyph horiz-adv-x="500" 
 />
    <glyph glyph-name=".notdef" horiz-adv-x="500" 
 />
    <glyph glyph-name=".null" horiz-adv-x="0" 
 />
    <glyph glyph-name="nonmarkingreturn" horiz-adv-x="500" 
 />
    <glyph glyph-name="space" unicode=" " 
 />
    <glyph glyph-name="space" unicode="&#xa0;" 
 />
    <glyph glyph-name="two" unicode="2" 
d="M480 580h100v-100h-100v100zM480 460h100v-100h-100v100zM480 340h100v-100h-100v100zM480 100h100v-100h-100v100zM360 580h100v-100h-100v100zM360 340h100v-100h-100v100zM360 100h100v-100h-100v100zM240 580h100v-100h-100v100zM240 340h100v-100h-100v100zM240 100
h100v-100h-100v100zM120 580h100v-100h-100v100zM120 340h100v-100h-100v100zM120 100h100v-100h-100v100zM0 580h100v-100h-100v100zM0 340h100v-100h-100v100zM0 220h100v-100h-100v100zM0 100h100v-100h-100v100z" />
    <glyph glyph-name="three" unicode="3" 
d="M480 580h100v-100h-100v100zM480 460h100v-100h-100v100zM480 340h100v-100h-100v100zM480 220h100v-100h-100v100zM480 100h100v-100h-100v100zM360 580h100v-100h-100v100zM360 340h100v-100h-100v100zM360 100h100v-100h-100v100zM240 580h100v-100h-100v100zM240 340
h100v-100h-100v100zM240 100h100v-100h-100v100zM120 580h100v-100h-100v100zM120 340h100v-100h-100v100zM120 100h100v-100h-100v100zM0 580h100v-100h-100v100zM0 100h100v-100h-100v100z" />
    <glyph glyph-name="four" unicode="4" 
d="M480 580h100v-100h-100v100zM480 460h100v-100h-100v100zM480 340h100v-100h-100v100zM480 220h100v-100h-100v100zM480 100h100v-100h-100v100zM360 340h100v-100h-100v100zM240 340h100v-100h-100v100zM120 340h100v-100h-100v100zM0 580h100v-100h-100v100zM0 460h100
v-100h-100v100zM0 340h100v-100h-100v100z" />
    <glyph glyph-name="five" unicode="5" 
d="M480 580h100v-100h-100v100zM480 220h100v-100h-100v100zM360 580h100v-100h-100v100zM360 340h100v-100h-100v100zM360 100h100v-100h-100v100zM240 580h100v-100h-100v100zM240 340h100v-100h-100v100zM240 100h100v-100h-100v100zM120 580h100v-100h-100v100zM120 340
h100v-100h-100v100zM120 100h100v-100h-100v100zM0 580h100v-100h-100v100zM0 460h100v-100h-100v100zM0 340h100v-100h-100v100zM0 100h100v-100h-100v100z" />
    <glyph glyph-name="six" unicode="6" 
d="M480 580h100v-100h-100v100zM480 340h100v-100h-100v100zM480 220h100v-100h-100v100zM480 100h100v-100h-100v100zM360 580h100v-100h-100v100zM360 340h100v-100h-100v100zM360 100h100v-100h-100v100zM240 580h100v-100h-100v100zM240 340h100v-100h-100v100zM240 100
h100v-100h-100v100zM120 580h100v-100h-100v100zM120 340h100v-100h-100v100zM120 100h100v-100h-100v100zM0 580h100v-100h-100v100zM0 460h100v-100h-100v100zM0 340h100v-100h-100v100zM0 220h100v-100h-100v100zM0 100h100v-100h-100v100z" />
    <glyph glyph-name="seven" unicode="7" 
d="M480 580h100v-100h-100v100zM480 460h100v-100h-100v100zM480 340h100v-100h-100v100zM480 220h100v-100h-100v100zM480 100h100v-100h-100v100zM360 580h100v-100h-100v100zM240 580h100v-100h-100v100zM120 580h100v-100h-100v100zM0 580h100v-100h-100v100zM0 460h100
v-100h-100v100z" />
    <glyph glyph-name="nine" unicode="9" 
d="M480 580h100v-100h-100v100zM480 460h100v-100h-100v100zM480 340h100v-100h-100v100zM480 220h100v-100h-100v100zM480 100h100v-100h-100v100zM360 580h100v-100h-100v100zM360 340h100v-100h-100v100zM360 100h100v-100h-100v100zM240 580h100v-100h-100v100zM240 340
h100v-100h-100v100zM240 100h100v-100h-100v100zM120 580h100v-100h-100v100zM120 340h100v-100h-100v100zM120 100h100v-100h-100v100zM0 580h100v-100h-100v100zM0 460h100v-100h-100v100zM0 340h100v-100h-100v100zM0 100h100v-100h-100v100z" />
    <glyph glyph-name="afii10097" unicode="&#x44f;" 
d="M480 580h100v-100h-100v100zM480 460h100v-100h-100v100zM480 340h100v-100h-100v100zM480 220h100v-100h-100v100zM480 100h100v-100h-100v100zM360 580h100v-100h-100v100zM360 340h100v-100h-100v100zM240 580h100v-100h-100v100zM240 340h100v-100h-100v100zM120 580
h100v-100h-100v100zM120 340h100v-100h-100v100zM120 220h100v-100h-100v100zM0 580h100v-100h-100v100zM0 460h100v-100h-100v100zM0 340h100v-100h-100v100zM0 100h100v-100h-100v100z" />
    <glyph glyph-name="A" unicode="A" 
d="M480 580h100v-100h-100v100zM480 460h100v-100h-100v100zM480 340h100v-100h-100v100zM480 220h100v-100h-100v100zM480 100h100v-100h-100v100zM360 580h100v-100h-100v100zM360 340h100v-100h-100v100zM240 580h100v-100h-100v100zM240 340h100v-100h-100v100zM120 580
h100v-100h-100v100zM120 340h100v-100h-100v100zM0 580h100v-100h-100v100zM0 460h100v-100h-100v100zM0 340h100v-100h-100v100zM0 220h100v-100h-100v100zM0 100h100v-100h-100v100z" />
    <glyph glyph-name="eight" unicode="8" 
d="M480 580h100v-100h-100v100zM480 460h100v-100h-100v100zM480 340h100v-100h-100v100zM480 220h100v-100h-100v100zM480 100h100v-100h-100v100zM360 580h100v-100h-100v100zM360 340h100v-100h-100v100zM360 100h100v-100h-100v100zM240 580h100v-100h-100v100zM240 340
h100v-100h-100v100zM240 100h100v-100h-100v100zM120 580h100v-100h-100v100zM120 340h100v-100h-100v100zM120 100h100v-100h-100v100zM0 580h100v-100h-100v100zM0 460h100v-100h-100v100zM0 340h100v-100h-100v100zM0 220h100v-100h-100v100zM0 100h100v-100h-100v100z
" />
    <glyph glyph-name="zero" unicode="0" 
d="M480 580h100v-100h-100v100zM480 460h100v-100h-100v100zM480 340h100v-100h-100v100zM480 220h100v-100h-100v100zM480 100h100v-100h-100v100zM360 580h100v-100h-100v100zM360 460h100v-100h-100v100zM360 100h100v-100h-100v100zM240 580h100v-100h-100v100zM240 340
h100v-100h-100v100zM240 100h100v-100h-100v100zM120 580h100v-100h-100v100zM120 220h100v-100h-100v100zM120 100h100v-100h-100v100zM0 580h100v-100h-100v100zM0 460h100v-100h-100v100zM0 340h100v-100h-100v100zM0 220h100v-100h-100v100zM0 100h100v-100h-100v100z
" />
    <glyph glyph-name="one" unicode="1" 
d="M360 100h100v-100h-100v100zM240 580h100v-100h-100v100zM240 460h100v-100h-100v100zM240 340h100v-100h-100v100zM240 220h100v-100h-100v100zM240 100h100v-100h-100v100zM120 580h100v-100h-100v100zM120 100h100v-100h-100v100z" />
    <glyph glyph-name="B" unicode="B" 
d="M480 460h100v-100h-100v100zM480 340h100v-100h-100v100zM480 220h100v-100h-100v100zM360 580h100v-100h-100v100zM360 340h100v-100h-100v100zM360 100h100v-100h-100v100zM240 580h100v-100h-100v100zM240 340h100v-100h-100v100zM240 100h100v-100h-100v100zM120 580
h100v-100h-100v100zM120 340h100v-100h-100v100zM120 100h100v-100h-100v100zM0 580h100v-100h-100v100zM0 460h100v-100h-100v100zM0 340h100v-100h-100v100zM0 220h100v-100h-100v100zM0 100h100v-100h-100v100z" />
    <glyph glyph-name="C" unicode="C" 
d="M480 580h100v-100h-100v100zM480 100h100v-100h-100v100zM360 580h100v-100h-100v100zM360 100h100v-100h-100v100zM240 580h100v-100h-100v100zM240 100h100v-100h-100v100zM120 580h100v-100h-100v100zM120 100h100v-100h-100v100zM0 580h100v-100h-100v100zM0 460h100
v-100h-100v100zM0 340h100v-100h-100v100zM0 220h100v-100h-100v100zM0 100h100v-100h-100v100z" />
    <glyph glyph-name="D" unicode="D" 
d="M480 460h100v-100h-100v100zM480 340h100v-100h-100v100zM480 220h100v-100h-100v100zM360 580h100v-100h-100v100zM360 100h100v-100h-100v100zM240 580h100v-100h-100v100zM240 100h100v-100h-100v100zM120 580h100v-100h-100v100zM120 100h100v-100h-100v100zM0 580
h100v-100h-100v100zM0 460h100v-100h-100v100zM0 340h100v-100h-100v100zM0 220h100v-100h-100v100zM0 100h100v-100h-100v100z" />
    <glyph glyph-name="E" unicode="E" 
d="M480 580h100v-100h-100v100zM480 100h100v-100h-100v100zM360 580h100v-100h-100v100zM360 340h100v-100h-100v100zM360 100h100v-100h-100v100zM240 580h100v-100h-100v100zM240 340h100v-100h-100v100zM240 100h100v-100h-100v100zM120 580h100v-100h-100v100zM120 340
h100v-100h-100v100zM120 100h100v-100h-100v100zM0 580h100v-100h-100v100zM0 460h100v-100h-100v100zM0 340h100v-100h-100v100zM0 220h100v-100h-100v100zM0 100h100v-100h-100v100z" />
    <glyph glyph-name="F" unicode="F" 
d="M480 580h100v-100h-100v100zM360 580h100v-100h-100v100zM360 340h100v-100h-100v100zM240 580h100v-100h-100v100zM240 340h100v-100h-100v100zM120 580h100v-100h-100v100zM120 340h100v-100h-100v100zM0 580h100v-100h-100v100zM0 460h100v-100h-100v100zM0 340h100
v-100h-100v100zM0 220h100v-100h-100v100zM0 100h100v-100h-100v100z" />
    <glyph glyph-name="G" unicode="G" 
d="M480 580h100v-100h-100v100zM480 340h100v-100h-100v100zM480 220h100v-100h-100v100zM480 100h100v-100h-100v100zM360 580h100v-100h-100v100zM360 340h100v-100h-100v100zM360 100h100v-100h-100v100zM240 580h100v-100h-100v100zM240 340h100v-100h-100v100zM240 100
h100v-100h-100v100zM120 580h100v-100h-100v100zM120 100h100v-100h-100v100zM0 580h100v-100h-100v100zM0 460h100v-100h-100v100zM0 340h100v-100h-100v100zM0 220h100v-100h-100v100zM0 100h100v-100h-100v100z" />
    <glyph glyph-name="H" unicode="H" 
d="M480 580h100v-100h-100v100zM480 460h100v-100h-100v100zM480 340h100v-100h-100v100zM480 220h100v-100h-100v100zM480 100h100v-100h-100v100zM360 340h100v-100h-100v100zM240 340h100v-100h-100v100zM120 340h100v-100h-100v100zM0 580h100v-100h-100v100zM0 460h100
v-100h-100v100zM0 340h100v-100h-100v100zM0 220h100v-100h-100v100zM0 100h100v-100h-100v100z" />
    <glyph glyph-name="I" unicode="I" 
d="M360 580h100v-100h-100v100zM360 100h100v-100h-100v100zM240 580h100v-100h-100v100zM240 460h100v-100h-100v100zM240 340h100v-100h-100v100zM240 220h100v-100h-100v100zM240 100h100v-100h-100v100zM120 580h100v-100h-100v100zM120 100h100v-100h-100v100z" />
    <glyph glyph-name="J" unicode="J" 
d="M480 580h100v-100h-100v100zM480 460h100v-100h-100v100zM480 340h100v-100h-100v100zM480 220h100v-100h-100v100zM360 580h100v-100h-100v100zM360 100h100v-100h-100v100zM240 580h100v-100h-100v100zM240 100h100v-100h-100v100zM120 580h100v-100h-100v100zM120 100
h100v-100h-100v100zM0 580h100v-100h-100v100zM0 220h100v-100h-100v100z" />
    <glyph glyph-name="K" unicode="K" 
d="M480 580h100v-100h-100v100zM480 100h100v-100h-100v100zM360 460h100v-100h-100v100zM360 220h100v-100h-100v100zM240 340h100v-100h-100v100zM120 340h100v-100h-100v100zM0 580h100v-100h-100v100zM0 460h100v-100h-100v100zM0 340h100v-100h-100v100zM0 220h100
v-100h-100v100zM0 100h100v-100h-100v100z" />
    <glyph glyph-name="L" unicode="L" 
d="M480 100h100v-100h-100v100zM360 100h100v-100h-100v100zM240 100h100v-100h-100v100zM120 100h100v-100h-100v100zM0 580h100v-100h-100v100zM0 460h100v-100h-100v100zM0 340h100v-100h-100v100zM0 220h100v-100h-100v100zM0 100h100v-100h-100v100z" />
    <glyph glyph-name="M" unicode="M" 
d="M480 580h100v-100h-100v100zM480 460h100v-100h-100v100zM480 340h100v-100h-100v100zM480 220h100v-100h-100v100zM480 100h100v-100h-100v100zM360 460h100v-100h-100v100zM240 340h100v-100h-100v100zM240 220h100v-100h-100v100zM120 460h100v-100h-100v100zM0 580
h100v-100h-100v100zM0 460h100v-100h-100v100zM0 340h100v-100h-100v100zM0 220h100v-100h-100v100zM0 100h100v-100h-100v100z" />
    <glyph glyph-name="N" unicode="N" 
d="M480 580h100v-100h-100v100zM480 460h100v-100h-100v100zM480 340h100v-100h-100v100zM480 220h100v-100h-100v100zM480 100h100v-100h-100v100zM360 220h100v-100h-100v100zM240 340h100v-100h-100v100zM120 460h100v-100h-100v100zM0 580h100v-100h-100v100zM0 460h100
v-100h-100v100zM0 340h100v-100h-100v100zM0 220h100v-100h-100v100zM0 100h100v-100h-100v100z" />
    <glyph glyph-name="O" unicode="O" 
d="M480 580h100v-100h-100v100zM480 460h100v-100h-100v100zM480 340h100v-100h-100v100zM480 220h100v-100h-100v100zM480 100h100v-100h-100v100zM360 580h100v-100h-100v100zM360 100h100v-100h-100v100zM240 580h100v-100h-100v100zM240 100h100v-100h-100v100zM120 580
h100v-100h-100v100zM120 100h100v-100h-100v100zM0 580h100v-100h-100v100zM0 460h100v-100h-100v100zM0 340h100v-100h-100v100zM0 220h100v-100h-100v100zM0 100h100v-100h-100v100z" />
    <glyph glyph-name="P" unicode="P" 
d="M480 580h100v-100h-100v100zM480 460h100v-100h-100v100zM480 340h100v-100h-100v100zM360 580h100v-100h-100v100zM360 340h100v-100h-100v100zM240 580h100v-100h-100v100zM240 340h100v-100h-100v100zM120 580h100v-100h-100v100zM120 340h100v-100h-100v100zM0 580
h100v-100h-100v100zM0 460h100v-100h-100v100zM0 340h100v-100h-100v100zM0 220h100v-100h-100v100zM0 100h100v-100h-100v100z" />
    <glyph glyph-name="Q" unicode="Q" 
d="M480 580h100v-100h-100v100zM480 460h100v-100h-100v100zM480 340h100v-100h-100v100zM480 220h100v-100h-100v100zM480 100h100v-100h-100v100zM360 580h100v-100h-100v100zM360 220h100v-100h-100v100zM360 100h100v-100h-100v100zM240 580h100v-100h-100v100zM240 100
h100v-100h-100v100zM120 580h100v-100h-100v100zM120 100h100v-100h-100v100zM0 580h100v-100h-100v100zM0 460h100v-100h-100v100zM0 340h100v-100h-100v100zM0 220h100v-100h-100v100zM0 100h100v-100h-100v100z" />
    <glyph glyph-name="R" unicode="R" 
d="M480 580h100v-100h-100v100zM480 460h100v-100h-100v100zM480 340h100v-100h-100v100zM480 100h100v-100h-100v100zM360 580h100v-100h-100v100zM360 340h100v-100h-100v100zM360 220h100v-100h-100v100zM240 580h100v-100h-100v100zM240 340h100v-100h-100v100zM120 580
h100v-100h-100v100zM120 340h100v-100h-100v100zM0 580h100v-100h-100v100zM0 460h100v-100h-100v100zM0 340h100v-100h-100v100zM0 220h100v-100h-100v100zM0 100h100v-100h-100v100z" />
    <glyph glyph-name="S" unicode="S" 
d="M480 580h100v-100h-100v100zM480 340h100v-100h-100v100zM480 220h100v-100h-100v100zM480 100h100v-100h-100v100zM360 580h100v-100h-100v100zM360 340h100v-100h-100v100zM360 100h100v-100h-100v100zM240 580h100v-100h-100v100zM240 340h100v-100h-100v100zM240 100
h100v-100h-100v100zM120 580h100v-100h-100v100zM120 340h100v-100h-100v100zM120 100h100v-100h-100v100zM0 580h100v-100h-100v100zM0 460h100v-100h-100v100zM0 340h100v-100h-100v100zM0 100h100v-100h-100v100z" />
    <glyph glyph-name="T" unicode="T" 
d="M480 580h100v-100h-100v100zM360 580h100v-100h-100v100zM240 580h100v-100h-100v100zM240 460h100v-100h-100v100zM240 340h100v-100h-100v100zM240 220h100v-100h-100v100zM240 100h100v-100h-100v100zM120 580h100v-100h-100v100zM0 580h100v-100h-100v100z" />
    <glyph glyph-name="U" unicode="U" 
d="M480 580h100v-100h-100v100zM480 460h100v-100h-100v100zM480 340h100v-100h-100v100zM480 220h100v-100h-100v100zM480 100h100v-100h-100v100zM360 100h100v-100h-100v100zM240 100h100v-100h-100v100zM120 100h100v-100h-100v100zM0 580h100v-100h-100v100zM0 460h100
v-100h-100v100zM0 340h100v-100h-100v100zM0 220h100v-100h-100v100zM0 100h100v-100h-100v100z" />
    <glyph glyph-name="V" unicode="V" 
d="M480 580h100v-100h-100v100zM480 460h100v-100h-100v100zM480 340h100v-100h-100v100zM360 220h100v-100h-100v100zM240 100h100v-100h-100v100zM120 220h100v-100h-100v100zM0 580h100v-100h-100v100zM0 460h100v-100h-100v100zM0 340h100v-100h-100v100z" />
    <glyph glyph-name="W" unicode="W" 
d="M480 580h100v-100h-100v100zM480 460h100v-100h-100v100zM480 340h100v-100h-100v100zM480 220h100v-100h-100v100zM360 100h100v-100h-100v100zM240 580h100v-100h-100v100zM240 460h100v-100h-100v100zM240 340h100v-100h-100v100zM240 220h100v-100h-100v100zM120 100
h100v-100h-100v100zM0 580h100v-100h-100v100zM0 460h100v-100h-100v100zM0 340h100v-100h-100v100zM0 220h100v-100h-100v100z" />
    <glyph glyph-name="X" unicode="X" 
d="M480 580h100v-100h-100v100zM480 100h100v-100h-100v100zM360 460h100v-100h-100v100zM360 220h100v-100h-100v100zM240 340h100v-100h-100v100zM120 460h100v-100h-100v100zM120 220h100v-100h-100v100zM0 580h100v-100h-100v100zM0 100h100v-100h-100v100z" />
    <glyph glyph-name="Y" unicode="Y" 
d="M480 580h100v-100h-100v100zM360 460h100v-100h-100v100zM240 340h100v-100h-100v100zM240 220h100v-100h-100v100zM240 100h100v-100h-100v100zM120 460h100v-100h-100v100zM0 580h100v-100h-100v100z" />
    <glyph glyph-name="Z" unicode="Z" 
d="M480 580h100v-100h-100v100zM480 100h100v-100h-100v100zM360 580h100v-100h-100v100zM360 460h100v-100h-100v100zM360 100h100v-100h-100v100zM240 580h100v-100h-100v100zM240 340h100v-100h-100v100zM240 100h100v-100h-100v100zM120 580h100v-100h-100v100zM120 220
h100v-100h-100v100zM120 100h100v-100h-100v100zM0 580h100v-100h-100v100zM0 100h100v-100h-100v100z" />
    <glyph glyph-name="a" unicode="a" 
d="M480 580h100v-100h-100v100zM480 460h100v-100h-100v100zM480 340h100v-100h-100v100zM480 220h100v-100h-100v100zM480 100h100v-100h-100v100zM360 580h100v-100h-100v100zM360 340h100v-100h-100v100zM240 580h100v-100h-100v100zM240 340h100v-100h-100v100zM120 580
h100v-100h-100v100zM120 340h100v-100h-100v100zM0 580h100v-100h-100v100zM0 460h100v-100h-100v100zM0 340h100v-100h-100v100zM0 220h100v-100h-100v100zM0 100h100v-100h-100v100z" />
    <glyph glyph-name="b" unicode="b" 
d="M480 460h100v-100h-100v100zM480 340h100v-100h-100v100zM480 220h100v-100h-100v100zM360 580h100v-100h-100v100zM360 340h100v-100h-100v100zM360 100h100v-100h-100v100zM240 580h100v-100h-100v100zM240 340h100v-100h-100v100zM240 100h100v-100h-100v100zM120 580
h100v-100h-100v100zM120 340h100v-100h-100v100zM120 100h100v-100h-100v100zM0 580h100v-100h-100v100zM0 460h100v-100h-100v100zM0 340h100v-100h-100v100zM0 220h100v-100h-100v100zM0 100h100v-100h-100v100z" />
    <glyph glyph-name="c" unicode="c" 
d="M480 580h100v-100h-100v100zM480 100h100v-100h-100v100zM360 580h100v-100h-100v100zM360 100h100v-100h-100v100zM240 580h100v-100h-100v100zM240 100h100v-100h-100v100zM120 580h100v-100h-100v100zM120 100h100v-100h-100v100zM0 580h100v-100h-100v100zM0 460h100
v-100h-100v100zM0 340h100v-100h-100v100zM0 220h100v-100h-100v100zM0 100h100v-100h-100v100z" />
    <glyph glyph-name="d" unicode="d" 
d="M480 460h100v-100h-100v100zM480 340h100v-100h-100v100zM480 220h100v-100h-100v100zM360 580h100v-100h-100v100zM360 100h100v-100h-100v100zM240 580h100v-100h-100v100zM240 100h100v-100h-100v100zM120 580h100v-100h-100v100zM120 100h100v-100h-100v100zM0 580
h100v-100h-100v100zM0 460h100v-100h-100v100zM0 340h100v-100h-100v100zM0 220h100v-100h-100v100zM0 100h100v-100h-100v100z" />
    <glyph glyph-name="e" unicode="e" 
d="M480 580h100v-100h-100v100zM480 100h100v-100h-100v100zM360 580h100v-100h-100v100zM360 340h100v-100h-100v100zM360 100h100v-100h-100v100zM240 580h100v-100h-100v100zM240 340h100v-100h-100v100zM240 100h100v-100h-100v100zM120 580h100v-100h-100v100zM120 340
h100v-100h-100v100zM120 100h100v-100h-100v100zM0 580h100v-100h-100v100zM0 460h100v-100h-100v100zM0 340h100v-100h-100v100zM0 220h100v-100h-100v100zM0 100h100v-100h-100v100z" />
    <glyph glyph-name="f" unicode="f" 
d="M480 580h100v-100h-100v100zM360 580h100v-100h-100v100zM360 340h100v-100h-100v100zM240 580h100v-100h-100v100zM240 340h100v-100h-100v100zM120 580h100v-100h-100v100zM120 340h100v-100h-100v100zM0 580h100v-100h-100v100zM0 460h100v-100h-100v100zM0 340h100
v-100h-100v100zM0 220h100v-100h-100v100zM0 100h100v-100h-100v100z" />
    <glyph glyph-name="g" unicode="g" 
d="M480 580h100v-100h-100v100zM480 340h100v-100h-100v100zM480 220h100v-100h-100v100zM480 100h100v-100h-100v100zM360 580h100v-100h-100v100zM360 340h100v-100h-100v100zM360 100h100v-100h-100v100zM240 580h100v-100h-100v100zM240 340h100v-100h-100v100zM240 100
h100v-100h-100v100zM120 580h100v-100h-100v100zM120 100h100v-100h-100v100zM0 580h100v-100h-100v100zM0 460h100v-100h-100v100zM0 340h100v-100h-100v100zM0 220h100v-100h-100v100zM0 100h100v-100h-100v100z" />
    <glyph glyph-name="h" unicode="h" 
d="M480 580h100v-100h-100v100zM480 460h100v-100h-100v100zM480 340h100v-100h-100v100zM480 220h100v-100h-100v100zM480 100h100v-100h-100v100zM360 340h100v-100h-100v100zM240 340h100v-100h-100v100zM120 340h100v-100h-100v100zM0 580h100v-100h-100v100zM0 460h100
v-100h-100v100zM0 340h100v-100h-100v100zM0 220h100v-100h-100v100zM0 100h100v-100h-100v100z" />
    <glyph glyph-name="i" unicode="i" 
d="M360 580h100v-100h-100v100zM360 100h100v-100h-100v100zM240 580h100v-100h-100v100zM240 460h100v-100h-100v100zM240 340h100v-100h-100v100zM240 220h100v-100h-100v100zM240 100h100v-100h-100v100zM120 580h100v-100h-100v100zM120 100h100v-100h-100v100z" />
    <glyph glyph-name="j" unicode="j" 
d="M480 580h100v-100h-100v100zM480 460h100v-100h-100v100zM480 340h100v-100h-100v100zM480 220h100v-100h-100v100zM360 580h100v-100h-100v100zM360 100h100v-100h-100v100zM240 580h100v-100h-100v100zM240 100h100v-100h-100v100zM120 580h100v-100h-100v100zM120 100
h100v-100h-100v100zM0 580h100v-100h-100v100zM0 220h100v-100h-100v100z" />
    <glyph glyph-name="k" unicode="k" 
d="M480 580h100v-100h-100v100zM480 100h100v-100h-100v100zM360 460h100v-100h-100v100zM360 220h100v-100h-100v100zM240 340h100v-100h-100v100zM120 340h100v-100h-100v100zM0 580h100v-100h-100v100zM0 460h100v-100h-100v100zM0 340h100v-100h-100v100zM0 220h100
v-100h-100v100zM0 100h100v-100h-100v100z" />
    <glyph glyph-name="l" unicode="l" 
d="M480 100h100v-100h-100v100zM360 100h100v-100h-100v100zM240 100h100v-100h-100v100zM120 100h100v-100h-100v100zM0 580h100v-100h-100v100zM0 460h100v-100h-100v100zM0 340h100v-100h-100v100zM0 220h100v-100h-100v100zM0 100h100v-100h-100v100z" />
    <glyph glyph-name="m" unicode="m" 
d="M480 580h100v-100h-100v100zM480 460h100v-100h-100v100zM480 340h100v-100h-100v100zM480 220h100v-100h-100v100zM480 100h100v-100h-100v100zM360 460h100v-100h-100v100zM240 340h100v-100h-100v100zM240 220h100v-100h-100v100zM120 460h100v-100h-100v100zM0 580
h100v-100h-100v100zM0 460h100v-100h-100v100zM0 340h100v-100h-100v100zM0 220h100v-100h-100v100zM0 100h100v-100h-100v100z" />
    <glyph glyph-name="n" unicode="n" 
d="M480 580h100v-100h-100v100zM480 460h100v-100h-100v100zM480 340h100v-100h-100v100zM480 220h100v-100h-100v100zM480 100h100v-100h-100v100zM360 220h100v-100h-100v100zM240 340h100v-100h-100v100zM120 460h100v-100h-100v100zM0 580h100v-100h-100v100zM0 460h100
v-100h-100v100zM0 340h100v-100h-100v100zM0 220h100v-100h-100v100zM0 100h100v-100h-100v100z" />
    <glyph glyph-name="o" unicode="o" 
d="M480 580h100v-100h-100v100zM480 460h100v-100h-100v100zM480 340h100v-100h-100v100zM480 220h100v-100h-100v100zM480 100h100v-100h-100v100zM360 580h100v-100h-100v100zM360 100h100v-100h-100v100zM240 580h100v-100h-100v100zM240 100h100v-100h-100v100zM120 580
h100v-100h-100v100zM120 100h100v-100h-100v100zM0 580h100v-100h-100v100zM0 460h100v-100h-100v100zM0 340h100v-100h-100v100zM0 220h100v-100h-100v100zM0 100h100v-100h-100v100z" />
    <glyph glyph-name="p" unicode="p" 
d="M480 580h100v-100h-100v100zM480 460h100v-100h-100v100zM480 340h100v-100h-100v100zM360 580h100v-100h-100v100zM360 340h100v-100h-100v100zM240 580h100v-100h-100v100zM240 340h100v-100h-100v100zM120 580h100v-100h-100v100zM120 340h100v-100h-100v100zM0 580
h100v-100h-100v100zM0 460h100v-100h-100v100zM0 340h100v-100h-100v100zM0 220h100v-100h-100v100zM0 100h100v-100h-100v100z" />
    <glyph glyph-name="q" unicode="q" 
d="M480 580h100v-100h-100v100zM480 460h100v-100h-100v100zM480 340h100v-100h-100v100zM480 220h100v-100h-100v100zM480 100h100v-100h-100v100zM360 580h100v-100h-100v100zM360 220h100v-100h-100v100zM360 100h100v-100h-100v100zM240 580h100v-100h-100v100zM240 100
h100v-100h-100v100zM120 580h100v-100h-100v100zM120 100h100v-100h-100v100zM0 580h100v-100h-100v100zM0 460h100v-100h-100v100zM0 340h100v-100h-100v100zM0 220h100v-100h-100v100zM0 100h100v-100h-100v100z" />
    <glyph glyph-name="r" unicode="r" 
d="M480 580h100v-100h-100v100zM480 460h100v-100h-100v100zM480 340h100v-100h-100v100zM480 100h100v-100h-100v100zM360 580h100v-100h-100v100zM360 340h100v-100h-100v100zM360 220h100v-100h-100v100zM240 580h100v-100h-100v100zM240 340h100v-100h-100v100zM120 580
h100v-100h-100v100zM120 340h100v-100h-100v100zM0 580h100v-100h-100v100zM0 460h100v-100h-100v100zM0 340h100v-100h-100v100zM0 220h100v-100h-100v100zM0 100h100v-100h-100v100z" />
    <glyph glyph-name="s" unicode="s" 
d="M480 580h100v-100h-100v100zM480 340h100v-100h-100v100zM480 220h100v-100h-100v100zM480 100h100v-100h-100v100zM360 580h100v-100h-100v100zM360 340h100v-100h-100v100zM360 100h100v-100h-100v100zM240 580h100v-100h-100v100zM240 340h100v-100h-100v100zM240 100
h100v-100h-100v100zM120 580h100v-100h-100v100zM120 340h100v-100h-100v100zM120 100h100v-100h-100v100zM0 580h100v-100h-100v100zM0 460h100v-100h-100v100zM0 340h100v-100h-100v100zM0 100h100v-100h-100v100z" />
    <glyph glyph-name="t" unicode="t" 
d="M480 580h100v-100h-100v100zM360 580h100v-100h-100v100zM240 580h100v-100h-100v100zM240 460h100v-100h-100v100zM240 340h100v-100h-100v100zM240 220h100v-100h-100v100zM240 100h100v-100h-100v100zM120 580h100v-100h-100v100zM0 580h100v-100h-100v100z" />
    <glyph glyph-name="u" unicode="u" 
d="M480 580h100v-100h-100v100zM480 460h100v-100h-100v100zM480 340h100v-100h-100v100zM480 220h100v-100h-100v100zM480 100h100v-100h-100v100zM360 100h100v-100h-100v100zM240 100h100v-100h-100v100zM120 100h100v-100h-100v100zM0 580h100v-100h-100v100zM0 460h100
v-100h-100v100zM0 340h100v-100h-100v100zM0 220h100v-100h-100v100zM0 100h100v-100h-100v100z" />
    <glyph glyph-name="v" unicode="v" 
d="M480 580h100v-100h-100v100zM480 460h100v-100h-100v100zM480 340h100v-100h-100v100zM360 220h100v-100h-100v100zM240 100h100v-100h-100v100zM120 220h100v-100h-100v100zM0 580h100v-100h-100v100zM0 460h100v-100h-100v100zM0 340h100v-100h-100v100z" />
    <glyph glyph-name="w" unicode="w" 
d="M480 580h100v-100h-100v100zM480 460h100v-100h-100v100zM480 340h100v-100h-100v100zM480 220h100v-100h-100v100zM360 100h100v-100h-100v100zM240 580h100v-100h-100v100zM240 460h100v-100h-100v100zM240 340h100v-100h-100v100zM240 220h100v-100h-100v100zM120 100
h100v-100h-100v100zM0 580h100v-100h-100v100zM0 460h100v-100h-100v100zM0 340h100v-100h-100v100zM0 220h100v-100h-100v100z" />
    <glyph glyph-name="x" unicode="x" 
d="M480 580h100v-100h-100v100zM480 100h100v-100h-100v100zM360 460h100v-100h-100v100zM360 220h100v-100h-100v100zM240 340h100v-100h-100v100zM120 460h100v-100h-100v100zM120 220h100v-100h-100v100zM0 580h100v-100h-100v100zM0 100h100v-100h-100v100z" />
    <glyph glyph-name="y" unicode="y" 
d="M480 580h100v-100h-100v100zM360 460h100v-100h-100v100zM240 340h100v-100h-100v100zM240 220h100v-100h-100v100zM240 100h100v-100h-100v100zM120 460h100v-100h-100v100zM0 580h100v-100h-100v100z" />
    <glyph glyph-name="z" unicode="z" 
d="M480 580h100v-100h-100v100zM480 100h100v-100h-100v100zM360 580h100v-100h-100v100zM360 460h100v-100h-100v100zM360 100h100v-100h-100v100zM240 580h100v-100h-100v100zM240 340h100v-100h-100v100zM240 100h100v-100h-100v100zM120 580h100v-100h-100v100zM120 220
h100v-100h-100v100zM120 100h100v-100h-100v100zM0 580h100v-100h-100v100zM0 100h100v-100h-100v100z" />
    <glyph glyph-name="afii10017" unicode="&#x410;" 
d="M480 580h100v-100h-100v100zM480 460h100v-100h-100v100zM480 340h100v-100h-100v100zM480 220h100v-100h-100v100zM480 100h100v-100h-100v100zM360 580h100v-100h-100v100zM360 340h100v-100h-100v100zM240 580h100v-100h-100v100zM240 340h100v-100h-100v100zM120 580
h100v-100h-100v100zM120 340h100v-100h-100v100zM0 580h100v-100h-100v100zM0 460h100v-100h-100v100zM0 340h100v-100h-100v100zM0 220h100v-100h-100v100zM0 100h100v-100h-100v100z" />
    <glyph glyph-name="afii10019" unicode="&#x412;" 
d="M480 460h100v-100h-100v100zM480 340h100v-100h-100v100zM480 220h100v-100h-100v100zM360 580h100v-100h-100v100zM360 340h100v-100h-100v100zM360 100h100v-100h-100v100zM240 580h100v-100h-100v100zM240 340h100v-100h-100v100zM240 100h100v-100h-100v100zM120 580
h100v-100h-100v100zM120 340h100v-100h-100v100zM120 100h100v-100h-100v100zM0 580h100v-100h-100v100zM0 460h100v-100h-100v100zM0 340h100v-100h-100v100zM0 220h100v-100h-100v100zM0 100h100v-100h-100v100z" />
    <glyph glyph-name="afii10022" unicode="&#x415;" 
d="M480 580h100v-100h-100v100zM480 100h100v-100h-100v100zM360 580h100v-100h-100v100zM360 340h100v-100h-100v100zM360 100h100v-100h-100v100zM240 580h100v-100h-100v100zM240 340h100v-100h-100v100zM240 100h100v-100h-100v100zM120 580h100v-100h-100v100zM120 340
h100v-100h-100v100zM120 100h100v-100h-100v100zM0 580h100v-100h-100v100zM0 460h100v-100h-100v100zM0 340h100v-100h-100v100zM0 220h100v-100h-100v100zM0 100h100v-100h-100v100z" />
    <glyph glyph-name="afii10028" unicode="&#x41a;" 
d="M480 580h100v-100h-100v100zM480 100h100v-100h-100v100zM360 460h100v-100h-100v100zM360 220h100v-100h-100v100zM240 340h100v-100h-100v100zM120 340h100v-100h-100v100zM0 580h100v-100h-100v100zM0 460h100v-100h-100v100zM0 340h100v-100h-100v100zM0 220h100
v-100h-100v100zM0 100h100v-100h-100v100z" />
    <glyph glyph-name="afii10018" unicode="&#x411;" 
d="M480 580h100v-100h-100v100zM480 220h100v-100h-100v100zM360 580h100v-100h-100v100zM360 340h100v-100h-100v100zM360 100h100v-100h-100v100zM240 580h100v-100h-100v100zM240 340h100v-100h-100v100zM240 100h100v-100h-100v100zM120 580h100v-100h-100v100zM120 340
h100v-100h-100v100zM120 100h100v-100h-100v100zM0 580h100v-100h-100v100zM0 460h100v-100h-100v100zM0 340h100v-100h-100v100zM0 220h100v-100h-100v100zM0 100h100v-100h-100v100z" />
    <glyph glyph-name="afii10020" unicode="&#x413;" 
d="M480 580h100v-100h-100v100zM360 580h100v-100h-100v100zM240 580h100v-100h-100v100zM120 580h100v-100h-100v100zM0 580h100v-100h-100v100zM0 460h100v-100h-100v100zM0 340h100v-100h-100v100zM0 220h100v-100h-100v100zM0 100h100v-100h-100v100z" />
    <glyph glyph-name="afii10021" unicode="&#x414;" 
d="M480 100h100v-100h-100v100zM360 580h100v-100h-100v100zM360 460h100v-100h-100v100zM360 340h100v-100h-100v100zM360 220h100v-100h-100v100zM360 100h100v-100h-100v100zM240 580h100v-100h-100v100zM240 100h100v-100h-100v100zM120 580h100v-100h-100v100zM120 460
h100v-100h-100v100zM120 340h100v-100h-100v100zM120 220h100v-100h-100v100zM120 100h100v-100h-100v100zM0 100h100v-100h-100v100z" />
    <glyph glyph-name="afii10024" unicode="&#x416;" 
d="M480 580h100v-100h-100v100zM480 460h100v-100h-100v100zM480 340h100v-100h-100v100zM480 220h100v-100h-100v100zM480 100h100v-100h-100v100zM360 340h100v-100h-100v100zM240 580h100v-100h-100v100zM240 460h100v-100h-100v100zM240 340h100v-100h-100v100zM240 220
h100v-100h-100v100zM240 100h100v-100h-100v100zM120 340h100v-100h-100v100zM0 580h100v-100h-100v100zM0 460h100v-100h-100v100zM0 340h100v-100h-100v100zM0 220h100v-100h-100v100zM0 100h100v-100h-100v100z" />
    <glyph glyph-name="afii10025" unicode="&#x417;" 
d="M480 580h100v-100h-100v100zM480 460h100v-100h-100v100zM480 220h100v-100h-100v100zM480 100h100v-100h-100v100zM360 580h100v-100h-100v100zM360 340h100v-100h-100v100zM360 100h100v-100h-100v100zM240 580h100v-100h-100v100zM240 340h100v-100h-100v100zM240 100
h100v-100h-100v100zM120 580h100v-100h-100v100zM120 340h100v-100h-100v100zM120 100h100v-100h-100v100zM0 580h100v-100h-100v100zM0 100h100v-100h-100v100z" />
    <glyph glyph-name="afii10026" unicode="&#x418;" 
d="M480 580h100v-100h-100v100zM480 460h100v-100h-100v100zM480 340h100v-100h-100v100zM480 220h100v-100h-100v100zM480 100h100v-100h-100v100zM360 460h100v-100h-100v100zM240 340h100v-100h-100v100zM120 220h100v-100h-100v100zM0 580h100v-100h-100v100zM0 460h100
v-100h-100v100zM0 340h100v-100h-100v100zM0 220h100v-100h-100v100zM0 100h100v-100h-100v100z" />
    <glyph glyph-name="afii10027" unicode="&#x419;" 
d="M480 580h100v-100h-100v100zM480 460h100v-100h-100v100zM480 340h100v-100h-100v100zM480 220h100v-100h-100v100zM480 100h100v-100h-100v100zM360 460h100v-100h-100v100zM240 580h100v-100h-100v100zM240 340h100v-100h-100v100zM120 220h100v-100h-100v100zM0 580
h100v-100h-100v100zM0 460h100v-100h-100v100zM0 340h100v-100h-100v100zM0 220h100v-100h-100v100zM0 100h100v-100h-100v100z" />
    <glyph glyph-name="afii10029" unicode="&#x41b;" 
d="M480 580h100v-100h-100v100zM480 460h100v-100h-100v100zM480 340h100v-100h-100v100zM480 220h100v-100h-100v100zM480 100h100v-100h-100v100zM360 580h100v-100h-100v100zM240 580h100v-100h-100v100zM120 460h100v-100h-100v100zM0 340h100v-100h-100v100zM0 220h100
v-100h-100v100zM0 100h100v-100h-100v100z" />
    <glyph glyph-name="afii10030" unicode="&#x41c;" 
d="M480 580h100v-100h-100v100zM480 460h100v-100h-100v100zM480 340h100v-100h-100v100zM480 220h100v-100h-100v100zM480 100h100v-100h-100v100zM360 460h100v-100h-100v100zM240 340h100v-100h-100v100zM240 220h100v-100h-100v100zM120 460h100v-100h-100v100zM0 580
h100v-100h-100v100zM0 460h100v-100h-100v100zM0 340h100v-100h-100v100zM0 220h100v-100h-100v100zM0 100h100v-100h-100v100z" />
    <glyph glyph-name="afii10031" unicode="&#x41d;" 
d="M480 580h100v-100h-100v100zM480 460h100v-100h-100v100zM480 340h100v-100h-100v100zM480 220h100v-100h-100v100zM480 100h100v-100h-100v100zM360 340h100v-100h-100v100zM240 340h100v-100h-100v100zM120 340h100v-100h-100v100zM0 580h100v-100h-100v100zM0 460h100
v-100h-100v100zM0 340h100v-100h-100v100zM0 220h100v-100h-100v100zM0 100h100v-100h-100v100z" />
    <glyph glyph-name="afii10032" unicode="&#x41e;" 
d="M480 580h100v-100h-100v100zM480 460h100v-100h-100v100zM480 340h100v-100h-100v100zM480 220h100v-100h-100v100zM480 100h100v-100h-100v100zM360 580h100v-100h-100v100zM360 100h100v-100h-100v100zM240 580h100v-100h-100v100zM240 100h100v-100h-100v100zM120 580
h100v-100h-100v100zM120 100h100v-100h-100v100zM0 580h100v-100h-100v100zM0 460h100v-100h-100v100zM0 340h100v-100h-100v100zM0 220h100v-100h-100v100zM0 100h100v-100h-100v100z" />
    <glyph glyph-name="afii10033" unicode="&#x41f;" 
d="M480 580h100v-100h-100v100zM480 460h100v-100h-100v100zM480 340h100v-100h-100v100zM480 220h100v-100h-100v100zM480 100h100v-100h-100v100zM360 580h100v-100h-100v100zM240 580h100v-100h-100v100zM120 580h100v-100h-100v100zM0 580h100v-100h-100v100zM0 460h100
v-100h-100v100zM0 340h100v-100h-100v100zM0 220h100v-100h-100v100zM0 100h100v-100h-100v100z" />
    <glyph glyph-name="afii10034" unicode="&#x420;" 
d="M480 580h100v-100h-100v100zM480 460h100v-100h-100v100zM480 340h100v-100h-100v100zM360 580h100v-100h-100v100zM360 340h100v-100h-100v100zM240 580h100v-100h-100v100zM240 340h100v-100h-100v100zM120 580h100v-100h-100v100zM120 340h100v-100h-100v100zM0 580
h100v-100h-100v100zM0 460h100v-100h-100v100zM0 340h100v-100h-100v100zM0 220h100v-100h-100v100zM0 100h100v-100h-100v100z" />
    <glyph glyph-name="afii10035" unicode="&#x421;" 
d="M480 580h100v-100h-100v100zM480 100h100v-100h-100v100zM360 580h100v-100h-100v100zM360 100h100v-100h-100v100zM240 580h100v-100h-100v100zM240 100h100v-100h-100v100zM120 580h100v-100h-100v100zM120 100h100v-100h-100v100zM0 580h100v-100h-100v100zM0 460h100
v-100h-100v100zM0 340h100v-100h-100v100zM0 220h100v-100h-100v100zM0 100h100v-100h-100v100z" />
    <glyph glyph-name="afii10036" unicode="&#x422;" 
d="M480 580h100v-100h-100v100zM360 580h100v-100h-100v100zM240 580h100v-100h-100v100zM240 460h100v-100h-100v100zM240 340h100v-100h-100v100zM240 220h100v-100h-100v100zM240 100h100v-100h-100v100zM120 580h100v-100h-100v100zM0 580h100v-100h-100v100z" />
    <glyph glyph-name="afii10037" unicode="&#x423;" 
d="M480 580h100v-100h-100v100zM480 460h100v-100h-100v100zM480 340h100v-100h-100v100zM480 220h100v-100h-100v100zM480 100h100v-100h-100v100zM360 340h100v-100h-100v100zM360 100h100v-100h-100v100zM240 340h100v-100h-100v100zM240 100h100v-100h-100v100zM120 340
h100v-100h-100v100zM120 100h100v-100h-100v100zM0 580h100v-100h-100v100zM0 460h100v-100h-100v100zM0 340h100v-100h-100v100zM0 100h100v-100h-100v100z" />
    <glyph glyph-name="afii10038" unicode="&#x424;" 
d="M480 580h100v-100h-100v100zM480 460h100v-100h-100v100zM480 340h100v-100h-100v100zM480 220h100v-100h-100v100zM360 580h100v-100h-100v100zM360 220h100v-100h-100v100zM240 580h100v-100h-100v100zM240 460h100v-100h-100v100zM240 340h100v-100h-100v100zM240 220
h100v-100h-100v100zM240 100h100v-100h-100v100zM120 580h100v-100h-100v100zM120 220h100v-100h-100v100zM0 580h100v-100h-100v100zM0 460h100v-100h-100v100zM0 340h100v-100h-100v100zM0 220h100v-100h-100v100z" />
    <glyph glyph-name="afii10039" unicode="&#x425;" 
d="M480 580h100v-100h-100v100zM480 100h100v-100h-100v100zM360 460h100v-100h-100v100zM360 220h100v-100h-100v100zM240 340h100v-100h-100v100zM120 460h100v-100h-100v100zM120 220h100v-100h-100v100zM0 580h100v-100h-100v100zM0 100h100v-100h-100v100z" />
    <glyph glyph-name="afii10040" unicode="&#x426;" 
d="M480 100h100v-100h-100v100zM360 580h100v-100h-100v100zM360 460h100v-100h-100v100zM360 340h100v-100h-100v100zM360 220h100v-100h-100v100zM360 100h100v-100h-100v100zM240 100h100v-100h-100v100zM120 100h100v-100h-100v100zM0 580h100v-100h-100v100zM0 460h100
v-100h-100v100zM0 340h100v-100h-100v100zM0 220h100v-100h-100v100zM0 100h100v-100h-100v100z" />
    <glyph glyph-name="afii10041" unicode="&#x427;" 
d="M480 580h100v-100h-100v100zM480 460h100v-100h-100v100zM480 340h100v-100h-100v100zM480 220h100v-100h-100v100zM480 100h100v-100h-100v100zM360 340h100v-100h-100v100zM240 340h100v-100h-100v100zM120 340h100v-100h-100v100zM0 580h100v-100h-100v100zM0 460h100
v-100h-100v100z" />
    <glyph glyph-name="afii10042" unicode="&#x428;" 
d="M480 580h100v-100h-100v100zM480 460h100v-100h-100v100zM480 340h100v-100h-100v100zM480 220h100v-100h-100v100zM480 100h100v-100h-100v100zM360 100h100v-100h-100v100zM240 580h100v-100h-100v100zM240 460h100v-100h-100v100zM240 340h100v-100h-100v100zM240 220
h100v-100h-100v100zM240 100h100v-100h-100v100zM120 100h100v-100h-100v100zM0 580h100v-100h-100v100zM0 460h100v-100h-100v100zM0 340h100v-100h-100v100zM0 220h100v-100h-100v100zM0 100h100v-100h-100v100z" />
    <glyph glyph-name="afii10043" unicode="&#x429;" 
d="M480 580h100v-100h-100v100zM480 460h100v-100h-100v100zM480 340h100v-100h-100v100zM480 220h100v-100h-100v100zM480 100h100v-100h-100v100zM360 220h100v-100h-100v100zM240 580h100v-100h-100v100zM240 460h100v-100h-100v100zM240 340h100v-100h-100v100zM240 220
h100v-100h-100v100zM120 220h100v-100h-100v100zM0 580h100v-100h-100v100zM0 460h100v-100h-100v100zM0 340h100v-100h-100v100zM0 220h100v-100h-100v100z" />
    <glyph glyph-name="afii10044" unicode="&#x42a;" 
d="M480 340h100v-100h-100v100zM480 220h100v-100h-100v100zM480 100h100v-100h-100v100zM360 340h100v-100h-100v100zM360 100h100v-100h-100v100zM240 340h100v-100h-100v100zM240 100h100v-100h-100v100zM120 580h100v-100h-100v100zM120 460h100v-100h-100v100zM120 340
h100v-100h-100v100zM120 220h100v-100h-100v100zM120 100h100v-100h-100v100zM0 580h100v-100h-100v100z" />
    <glyph glyph-name="afii10045" unicode="&#x42b;" 
d="M480 580h100v-100h-100v100zM480 460h100v-100h-100v100zM480 340h100v-100h-100v100zM480 220h100v-100h-100v100zM480 100h100v-100h-100v100zM240 340h100v-100h-100v100zM240 220h100v-100h-100v100zM240 100h100v-100h-100v100zM120 340h100v-100h-100v100zM120 100
h100v-100h-100v100zM0 580h100v-100h-100v100zM0 460h100v-100h-100v100zM0 340h100v-100h-100v100zM0 220h100v-100h-100v100zM0 100h100v-100h-100v100z" />
    <glyph glyph-name="afii10046" unicode="&#x42c;" 
d="M480 340h100v-100h-100v100zM480 220h100v-100h-100v100zM480 100h100v-100h-100v100zM360 340h100v-100h-100v100zM360 100h100v-100h-100v100zM240 340h100v-100h-100v100zM240 100h100v-100h-100v100zM120 340h100v-100h-100v100zM120 100h100v-100h-100v100zM0 580
h100v-100h-100v100zM0 460h100v-100h-100v100zM0 340h100v-100h-100v100zM0 220h100v-100h-100v100zM0 100h100v-100h-100v100z" />
    <glyph glyph-name="afii10047" unicode="&#x42d;" 
d="M480 580h100v-100h-100v100zM480 460h100v-100h-100v100zM480 340h100v-100h-100v100zM480 220h100v-100h-100v100zM480 100h100v-100h-100v100zM360 580h100v-100h-100v100zM360 340h100v-100h-100v100zM360 100h100v-100h-100v100zM240 580h100v-100h-100v100zM240 340
h100v-100h-100v100zM240 100h100v-100h-100v100zM120 580h100v-100h-100v100zM120 100h100v-100h-100v100zM0 580h100v-100h-100v100zM0 100h100v-100h-100v100z" />
    <glyph glyph-name="afii10048" unicode="&#x42e;" 
d="M480 580h100v-100h-100v100zM480 460h100v-100h-100v100zM480 340h100v-100h-100v100zM480 220h100v-100h-100v100zM480 100h100v-100h-100v100zM360 580h100v-100h-100v100zM360 100h100v-100h-100v100zM240 580h100v-100h-100v100zM240 460h100v-100h-100v100zM240 340
h100v-100h-100v100zM240 220h100v-100h-100v100zM240 100h100v-100h-100v100zM120 340h100v-100h-100v100zM0 580h100v-100h-100v100zM0 460h100v-100h-100v100zM0 340h100v-100h-100v100zM0 220h100v-100h-100v100zM0 100h100v-100h-100v100z" />
    <glyph glyph-name="afii10049" unicode="&#x42f;" 
d="M480 580h100v-100h-100v100zM480 460h100v-100h-100v100zM480 340h100v-100h-100v100zM480 220h100v-100h-100v100zM480 100h100v-100h-100v100zM360 580h100v-100h-100v100zM360 340h100v-100h-100v100zM240 580h100v-100h-100v100zM240 340h100v-100h-100v100zM120 580
h100v-100h-100v100zM120 340h100v-100h-100v100zM120 220h100v-100h-100v100zM0 580h100v-100h-100v100zM0 460h100v-100h-100v100zM0 340h100v-100h-100v100zM0 100h100v-100h-100v100z" />
    <glyph glyph-name="exclam" unicode="!" 
d="M240 580h100v-100h-100v100zM240 460h100v-100h-100v100zM240 340h100v-100h-100v100zM240 100h100v-100h-100v100z" />
    <glyph glyph-name="afii10065" unicode="&#x430;" 
d="M480 580h100v-100h-100v100zM480 460h100v-100h-100v100zM480 340h100v-100h-100v100zM480 220h100v-100h-100v100zM480 100h100v-100h-100v100zM360 580h100v-100h-100v100zM360 340h100v-100h-100v100zM240 580h100v-100h-100v100zM240 340h100v-100h-100v100zM120 580
h100v-100h-100v100zM120 340h100v-100h-100v100zM0 580h100v-100h-100v100zM0 460h100v-100h-100v100zM0 340h100v-100h-100v100zM0 220h100v-100h-100v100zM0 100h100v-100h-100v100z" />
    <glyph glyph-name="afii10066" unicode="&#x431;" 
d="M480 580h100v-100h-100v100zM480 220h100v-100h-100v100zM360 580h100v-100h-100v100zM360 340h100v-100h-100v100zM360 100h100v-100h-100v100zM240 580h100v-100h-100v100zM240 340h100v-100h-100v100zM240 100h100v-100h-100v100zM120 580h100v-100h-100v100zM120 340
h100v-100h-100v100zM120 100h100v-100h-100v100zM0 580h100v-100h-100v100zM0 460h100v-100h-100v100zM0 340h100v-100h-100v100zM0 220h100v-100h-100v100zM0 100h100v-100h-100v100z" />
    <glyph glyph-name="afii10067" unicode="&#x432;" 
d="M480 460h100v-100h-100v100zM480 340h100v-100h-100v100zM480 220h100v-100h-100v100zM360 580h100v-100h-100v100zM360 340h100v-100h-100v100zM360 100h100v-100h-100v100zM240 580h100v-100h-100v100zM240 340h100v-100h-100v100zM240 100h100v-100h-100v100zM120 580
h100v-100h-100v100zM120 340h100v-100h-100v100zM120 100h100v-100h-100v100zM0 580h100v-100h-100v100zM0 460h100v-100h-100v100zM0 340h100v-100h-100v100zM0 220h100v-100h-100v100zM0 100h100v-100h-100v100z" />
    <glyph glyph-name="afii10068" unicode="&#x433;" 
d="M480 580h100v-100h-100v100zM360 580h100v-100h-100v100zM240 580h100v-100h-100v100zM120 580h100v-100h-100v100zM0 580h100v-100h-100v100zM0 460h100v-100h-100v100zM0 340h100v-100h-100v100zM0 220h100v-100h-100v100zM0 100h100v-100h-100v100z" />
    <glyph glyph-name="afii10069" unicode="&#x434;" 
d="M480 100h100v-100h-100v100zM360 580h100v-100h-100v100zM360 460h100v-100h-100v100zM360 340h100v-100h-100v100zM360 220h100v-100h-100v100zM360 100h100v-100h-100v100zM240 580h100v-100h-100v100zM240 100h100v-100h-100v100zM120 580h100v-100h-100v100zM120 460
h100v-100h-100v100zM120 340h100v-100h-100v100zM120 220h100v-100h-100v100zM120 100h100v-100h-100v100zM0 100h100v-100h-100v100z" />
    <glyph glyph-name="afii10070" unicode="&#x435;" 
d="M480 580h100v-100h-100v100zM480 100h100v-100h-100v100zM360 580h100v-100h-100v100zM360 340h100v-100h-100v100zM360 100h100v-100h-100v100zM240 580h100v-100h-100v100zM240 340h100v-100h-100v100zM240 100h100v-100h-100v100zM120 580h100v-100h-100v100zM120 340
h100v-100h-100v100zM120 100h100v-100h-100v100zM0 580h100v-100h-100v100zM0 460h100v-100h-100v100zM0 340h100v-100h-100v100zM0 220h100v-100h-100v100zM0 100h100v-100h-100v100z" />
    <glyph glyph-name="afii10072" unicode="&#x436;" 
d="M480 580h100v-100h-100v100zM480 460h100v-100h-100v100zM480 340h100v-100h-100v100zM480 220h100v-100h-100v100zM480 100h100v-100h-100v100zM360 340h100v-100h-100v100zM240 580h100v-100h-100v100zM240 460h100v-100h-100v100zM240 340h100v-100h-100v100zM240 220
h100v-100h-100v100zM240 100h100v-100h-100v100zM120 340h100v-100h-100v100zM0 580h100v-100h-100v100zM0 460h100v-100h-100v100zM0 340h100v-100h-100v100zM0 220h100v-100h-100v100zM0 100h100v-100h-100v100z" />
    <glyph glyph-name="afii10073" unicode="&#x437;" 
d="M480 580h100v-100h-100v100zM480 460h100v-100h-100v100zM480 220h100v-100h-100v100zM480 100h100v-100h-100v100zM360 580h100v-100h-100v100zM360 340h100v-100h-100v100zM360 100h100v-100h-100v100zM240 580h100v-100h-100v100zM240 340h100v-100h-100v100zM240 100
h100v-100h-100v100zM120 580h100v-100h-100v100zM120 340h100v-100h-100v100zM120 100h100v-100h-100v100zM0 580h100v-100h-100v100zM0 100h100v-100h-100v100z" />
    <glyph glyph-name="afii10074" unicode="&#x438;" 
d="M480 580h100v-100h-100v100zM480 460h100v-100h-100v100zM480 340h100v-100h-100v100zM480 220h100v-100h-100v100zM480 100h100v-100h-100v100zM360 460h100v-100h-100v100zM240 340h100v-100h-100v100zM120 220h100v-100h-100v100zM0 580h100v-100h-100v100zM0 460h100
v-100h-100v100zM0 340h100v-100h-100v100zM0 220h100v-100h-100v100zM0 100h100v-100h-100v100z" />
    <glyph glyph-name="afii10075" unicode="&#x439;" 
d="M480 580h100v-100h-100v100zM480 460h100v-100h-100v100zM480 340h100v-100h-100v100zM480 220h100v-100h-100v100zM480 100h100v-100h-100v100zM360 460h100v-100h-100v100zM240 580h100v-100h-100v100zM240 340h100v-100h-100v100zM120 220h100v-100h-100v100zM0 580
h100v-100h-100v100zM0 460h100v-100h-100v100zM0 340h100v-100h-100v100zM0 220h100v-100h-100v100zM0 100h100v-100h-100v100z" />
    <glyph glyph-name="afii10076" unicode="&#x43a;" 
d="M480 580h100v-100h-100v100zM480 100h100v-100h-100v100zM360 460h100v-100h-100v100zM360 220h100v-100h-100v100zM240 340h100v-100h-100v100zM120 340h100v-100h-100v100zM0 580h100v-100h-100v100zM0 460h100v-100h-100v100zM0 340h100v-100h-100v100zM0 220h100
v-100h-100v100zM0 100h100v-100h-100v100z" />
    <glyph glyph-name="afii10077" unicode="&#x43b;" 
d="M480 580h100v-100h-100v100zM480 460h100v-100h-100v100zM480 340h100v-100h-100v100zM480 220h100v-100h-100v100zM480 100h100v-100h-100v100zM360 580h100v-100h-100v100zM240 580h100v-100h-100v100zM120 460h100v-100h-100v100zM0 340h100v-100h-100v100zM0 220h100
v-100h-100v100zM0 100h100v-100h-100v100z" />
    <glyph glyph-name="afii10078" unicode="&#x43c;" 
d="M480 580h100v-100h-100v100zM480 460h100v-100h-100v100zM480 340h100v-100h-100v100zM480 220h100v-100h-100v100zM480 100h100v-100h-100v100zM360 460h100v-100h-100v100zM240 340h100v-100h-100v100zM240 220h100v-100h-100v100zM120 460h100v-100h-100v100zM0 580
h100v-100h-100v100zM0 460h100v-100h-100v100zM0 340h100v-100h-100v100zM0 220h100v-100h-100v100zM0 100h100v-100h-100v100z" />
    <glyph glyph-name="afii10079" unicode="&#x43d;" 
d="M480 580h100v-100h-100v100zM480 460h100v-100h-100v100zM480 340h100v-100h-100v100zM480 220h100v-100h-100v100zM480 100h100v-100h-100v100zM360 340h100v-100h-100v100zM240 340h100v-100h-100v100zM120 340h100v-100h-100v100zM0 580h100v-100h-100v100zM0 460h100
v-100h-100v100zM0 340h100v-100h-100v100zM0 220h100v-100h-100v100zM0 100h100v-100h-100v100z" />
    <glyph glyph-name="afii10080" unicode="&#x43e;" 
d="M480 580h100v-100h-100v100zM480 460h100v-100h-100v100zM480 340h100v-100h-100v100zM480 220h100v-100h-100v100zM480 100h100v-100h-100v100zM360 580h100v-100h-100v100zM360 100h100v-100h-100v100zM240 580h100v-100h-100v100zM240 100h100v-100h-100v100zM120 580
h100v-100h-100v100zM120 100h100v-100h-100v100zM0 580h100v-100h-100v100zM0 460h100v-100h-100v100zM0 340h100v-100h-100v100zM0 220h100v-100h-100v100zM0 100h100v-100h-100v100z" />
    <glyph glyph-name="afii10081" unicode="&#x43f;" 
d="M480 580h100v-100h-100v100zM480 460h100v-100h-100v100zM480 340h100v-100h-100v100zM480 220h100v-100h-100v100zM480 100h100v-100h-100v100zM360 580h100v-100h-100v100zM240 580h100v-100h-100v100zM120 580h100v-100h-100v100zM0 580h100v-100h-100v100zM0 460h100
v-100h-100v100zM0 340h100v-100h-100v100zM0 220h100v-100h-100v100zM0 100h100v-100h-100v100z" />
    <glyph glyph-name="afii10082" unicode="&#x440;" 
d="M480 580h100v-100h-100v100zM480 460h100v-100h-100v100zM480 340h100v-100h-100v100zM360 580h100v-100h-100v100zM360 340h100v-100h-100v100zM240 580h100v-100h-100v100zM240 340h100v-100h-100v100zM120 580h100v-100h-100v100zM120 340h100v-100h-100v100zM0 580
h100v-100h-100v100zM0 460h100v-100h-100v100zM0 340h100v-100h-100v100zM0 220h100v-100h-100v100zM0 100h100v-100h-100v100z" />
    <glyph glyph-name="afii10083" unicode="&#x441;" 
d="M480 580h100v-100h-100v100zM480 100h100v-100h-100v100zM360 580h100v-100h-100v100zM360 100h100v-100h-100v100zM240 580h100v-100h-100v100zM240 100h100v-100h-100v100zM120 580h100v-100h-100v100zM120 100h100v-100h-100v100zM0 580h100v-100h-100v100zM0 460h100
v-100h-100v100zM0 340h100v-100h-100v100zM0 220h100v-100h-100v100zM0 100h100v-100h-100v100z" />
    <glyph glyph-name="afii10084" unicode="&#x442;" 
d="M480 580h100v-100h-100v100zM360 580h100v-100h-100v100zM240 580h100v-100h-100v100zM240 460h100v-100h-100v100zM240 340h100v-100h-100v100zM240 220h100v-100h-100v100zM240 100h100v-100h-100v100zM120 580h100v-100h-100v100zM0 580h100v-100h-100v100z" />
    <glyph glyph-name="afii10085" unicode="&#x443;" 
d="M480 580h100v-100h-100v100zM480 460h100v-100h-100v100zM480 340h100v-100h-100v100zM480 220h100v-100h-100v100zM480 100h100v-100h-100v100zM360 340h100v-100h-100v100zM360 100h100v-100h-100v100zM240 340h100v-100h-100v100zM240 100h100v-100h-100v100zM120 340
h100v-100h-100v100zM120 100h100v-100h-100v100zM0 580h100v-100h-100v100zM0 460h100v-100h-100v100zM0 340h100v-100h-100v100zM0 100h100v-100h-100v100z" />
    <glyph glyph-name="afii10086" unicode="&#x444;" 
d="M480 580h100v-100h-100v100zM480 460h100v-100h-100v100zM480 340h100v-100h-100v100zM480 220h100v-100h-100v100zM360 580h100v-100h-100v100zM360 220h100v-100h-100v100zM240 580h100v-100h-100v100zM240 460h100v-100h-100v100zM240 340h100v-100h-100v100zM240 220
h100v-100h-100v100zM240 100h100v-100h-100v100zM120 580h100v-100h-100v100zM120 220h100v-100h-100v100zM0 580h100v-100h-100v100zM0 460h100v-100h-100v100zM0 340h100v-100h-100v100zM0 220h100v-100h-100v100z" />
    <glyph glyph-name="afii10087" unicode="&#x445;" 
d="M480 580h100v-100h-100v100zM480 100h100v-100h-100v100zM360 460h100v-100h-100v100zM360 220h100v-100h-100v100zM240 340h100v-100h-100v100zM120 460h100v-100h-100v100zM120 220h100v-100h-100v100zM0 580h100v-100h-100v100zM0 100h100v-100h-100v100z" />
    <glyph glyph-name="afii10088" unicode="&#x446;" 
d="M480 100h100v-100h-100v100zM360 580h100v-100h-100v100zM360 460h100v-100h-100v100zM360 340h100v-100h-100v100zM360 220h100v-100h-100v100zM360 100h100v-100h-100v100zM240 100h100v-100h-100v100zM120 100h100v-100h-100v100zM0 580h100v-100h-100v100zM0 460h100
v-100h-100v100zM0 340h100v-100h-100v100zM0 220h100v-100h-100v100zM0 100h100v-100h-100v100z" />
    <glyph glyph-name="afii10089" unicode="&#x447;" 
d="M480 580h100v-100h-100v100zM480 460h100v-100h-100v100zM480 340h100v-100h-100v100zM480 220h100v-100h-100v100zM480 100h100v-100h-100v100zM360 340h100v-100h-100v100zM240 340h100v-100h-100v100zM120 340h100v-100h-100v100zM0 580h100v-100h-100v100zM0 460h100
v-100h-100v100z" />
    <glyph glyph-name="afii10090" unicode="&#x448;" 
d="M480 580h100v-100h-100v100zM480 460h100v-100h-100v100zM480 340h100v-100h-100v100zM480 220h100v-100h-100v100zM480 100h100v-100h-100v100zM360 100h100v-100h-100v100zM240 580h100v-100h-100v100zM240 460h100v-100h-100v100zM240 340h100v-100h-100v100zM240 220
h100v-100h-100v100zM240 100h100v-100h-100v100zM120 100h100v-100h-100v100zM0 580h100v-100h-100v100zM0 460h100v-100h-100v100zM0 340h100v-100h-100v100zM0 220h100v-100h-100v100zM0 100h100v-100h-100v100z" />
    <glyph glyph-name="afii10091" unicode="&#x449;" 
d="M480 580h100v-100h-100v100zM480 460h100v-100h-100v100zM480 340h100v-100h-100v100zM480 220h100v-100h-100v100zM480 100h100v-100h-100v100zM360 220h100v-100h-100v100zM240 580h100v-100h-100v100zM240 460h100v-100h-100v100zM240 340h100v-100h-100v100zM240 220
h100v-100h-100v100zM120 220h100v-100h-100v100zM0 580h100v-100h-100v100zM0 460h100v-100h-100v100zM0 340h100v-100h-100v100zM0 220h100v-100h-100v100z" />
    <glyph glyph-name="afii10092" unicode="&#x44a;" 
d="M480 340h100v-100h-100v100zM480 220h100v-100h-100v100zM480 100h100v-100h-100v100zM360 340h100v-100h-100v100zM360 100h100v-100h-100v100zM240 340h100v-100h-100v100zM240 100h100v-100h-100v100zM120 580h100v-100h-100v100zM120 460h100v-100h-100v100zM120 340
h100v-100h-100v100zM120 220h100v-100h-100v100zM120 100h100v-100h-100v100zM0 580h100v-100h-100v100z" />
    <glyph glyph-name="afii10093" unicode="&#x44b;" 
d="M480 580h100v-100h-100v100zM480 460h100v-100h-100v100zM480 340h100v-100h-100v100zM480 220h100v-100h-100v100zM480 100h100v-100h-100v100zM240 340h100v-100h-100v100zM240 220h100v-100h-100v100zM240 100h100v-100h-100v100zM120 340h100v-100h-100v100zM120 100
h100v-100h-100v100zM0 580h100v-100h-100v100zM0 460h100v-100h-100v100zM0 340h100v-100h-100v100zM0 220h100v-100h-100v100zM0 100h100v-100h-100v100z" />
    <glyph glyph-name="afii10094" unicode="&#x44c;" 
d="M480 340h100v-100h-100v100zM480 220h100v-100h-100v100zM480 100h100v-100h-100v100zM360 340h100v-100h-100v100zM360 100h100v-100h-100v100zM240 340h100v-100h-100v100zM240 100h100v-100h-100v100zM120 340h100v-100h-100v100zM120 100h100v-100h-100v100zM0 580
h100v-100h-100v100zM0 460h100v-100h-100v100zM0 340h100v-100h-100v100zM0 220h100v-100h-100v100zM0 100h100v-100h-100v100z" />
    <glyph glyph-name="afii10095" unicode="&#x44d;" 
d="M480 580h100v-100h-100v100zM480 460h100v-100h-100v100zM480 340h100v-100h-100v100zM480 220h100v-100h-100v100zM480 100h100v-100h-100v100zM360 580h100v-100h-100v100zM360 340h100v-100h-100v100zM360 100h100v-100h-100v100zM240 580h100v-100h-100v100zM240 340
h100v-100h-100v100zM240 100h100v-100h-100v100zM120 580h100v-100h-100v100zM120 100h100v-100h-100v100zM0 580h100v-100h-100v100zM0 100h100v-100h-100v100z" />
    <glyph glyph-name="afii10096" unicode="&#x44e;" 
d="M480 580h100v-100h-100v100zM480 460h100v-100h-100v100zM480 340h100v-100h-100v100zM480 220h100v-100h-100v100zM480 100h100v-100h-100v100zM360 580h100v-100h-100v100zM360 100h100v-100h-100v100zM240 580h100v-100h-100v100zM240 460h100v-100h-100v100zM240 340
h100v-100h-100v100zM240 220h100v-100h-100v100zM240 100h100v-100h-100v100zM120 340h100v-100h-100v100zM0 580h100v-100h-100v100zM0 460h100v-100h-100v100zM0 340h100v-100h-100v100zM0 220h100v-100h-100v100zM0 100h100v-100h-100v100z" />
    <glyph glyph-name="numbersign" unicode="#" 
d="M480 460h100v-100h-100v100zM480 220h100v-100h-100v100zM360 580h100v-100h-100v100zM360 460h100v-100h-100v100zM360 340h100v-100h-100v100zM360 220h100v-100h-100v100zM360 100h100v-100h-100v100zM240 460h100v-100h-100v100zM240 220h100v-100h-100v100zM120 580
h100v-100h-100v100zM120 460h100v-100h-100v100zM120 340h100v-100h-100v100zM120 220h100v-100h-100v100zM120 100h100v-100h-100v100zM0 460h100v-100h-100v100zM0 220h100v-100h-100v100z" />
    <glyph glyph-name="dollar" unicode="$" 
d="M480 580h100v-100h-100v100zM480 340h100v-100h-100v100zM480 220h100v-100h-100v100zM480 100h100v-100h-100v100zM360 580h100v-100h-100v100zM360 340h100v-100h-100v100zM360 100h100v-100h-100v100zM240 580h100v-100h-100v100zM240 460h100v-100h-100v100zM240 340
h100v-100h-100v100zM240 220h100v-100h-100v100zM240 100h100v-100h-100v100zM120 580h100v-100h-100v100zM120 340h100v-100h-100v100zM120 100h100v-100h-100v100zM0 580h100v-100h-100v100zM0 460h100v-100h-100v100zM0 340h100v-100h-100v100zM0 100h100v-100h-100v100z
" />
    <glyph glyph-name="slash" unicode="/" 
d="M480 580h100v-100h-100v100zM360 460h100v-100h-100v100zM240 340h100v-100h-100v100zM120 220h100v-100h-100v100zM0 100h100v-100h-100v100z" />
    <glyph glyph-name="backslash" unicode="\" 
d="M480 100h100v-100h-100v100zM360 220h100v-100h-100v100zM240 340h100v-100h-100v100zM120 460h100v-100h-100v100zM0 580h100v-100h-100v100z" />
    <glyph glyph-name="bracketleft" unicode="[" 
d="M360 580h100v-100h-100v100zM360 100h100v-100h-100v100zM240 580h100v-100h-100v100zM240 460h100v-100h-100v100zM240 340h100v-100h-100v100zM240 220h100v-100h-100v100zM240 100h100v-100h-100v100z" />
    <glyph glyph-name="bracketright" unicode="]" 
d="M240 580h100v-100h-100v100zM240 460h100v-100h-100v100zM240 340h100v-100h-100v100zM240 220h100v-100h-100v100zM240 100h100v-100h-100v100zM120 580h100v-100h-100v100zM120 100h100v-100h-100v100z" />
    <glyph glyph-name="equal" unicode="=" 
d="M360 460h100v-100h-100v100zM360 220h100v-100h-100v100zM240 460h100v-100h-100v100zM240 220h100v-100h-100v100zM120 460h100v-100h-100v100zM120 220h100v-100h-100v100z" />
    <glyph glyph-name="plus" unicode="+" 
d="M360 340h100v-100h-100v100zM240 460h100v-100h-100v100zM240 340h100v-100h-100v100zM240 220h100v-100h-100v100zM120 340h100v-100h-100v100z" />
    <glyph glyph-name="hyphen" unicode="-" 
d="M360 340h100v-100h-100v100zM240 340h100v-100h-100v100zM120 340h100v-100h-100v100z" />
    <glyph glyph-name="bar" unicode="|" 
d="M240 580h100v-100h-100v100zM240 460h100v-100h-100v100zM240 340h100v-100h-100v100zM240 220h100v-100h-100v100zM240 100h100v-100h-100v100z" />
    <glyph glyph-name="colon" unicode=":" 
d="M240 460h100v-100h-100v100zM240 220h100v-100h-100v100z" />
    <glyph glyph-name="period" unicode="." 
d="M240 100h100v-100h-100v100z" />
    <glyph glyph-name="comma" unicode="," 
d="M360 100h100v-100h-100v100zM240 220h100v-100h-100v100z" />
    <glyph glyph-name="semicolon" unicode=";" 
d="M360 100h100v-100h-100v100zM240 460h100v-100h-100v100zM240 220h100v-100h-100v100z" />
    <glyph glyph-name="quotedbl" unicode="&#x22;" 
d="M360 580h100v-100h-100v100zM360 460h100v-100h-100v100zM120 580h100v-100h-100v100zM120 460h100v-100h-100v100z" />
    <glyph glyph-name="percent" unicode="%" 
d="M480 580h100v-100h-100v100zM480 220h100v-100h-100v100zM480 100h100v-100h-100v100zM360 460h100v-100h-100v100zM360 220h100v-100h-100v100zM360 100h100v-100h-100v100zM240 340h100v-100h-100v100zM120 580h100v-100h-100v100zM120 460h100v-100h-100v100zM120 220
h100v-100h-100v100zM0 580h100v-100h-100v100zM0 460h100v-100h-100v100zM0 100h100v-100h-100v100z" />
    <glyph glyph-name="quotesingle" unicode="'" 
d="M240 580h100v-100h-100v100zM240 460h100v-100h-100v100z" />
    <glyph glyph-name="underscore" unicode="_" 
d="M480 100h100v-100h-100v100zM360 100h100v-100h-100v100zM240 100h100v-100h-100v100zM120 100h100v-100h-100v100zM0 100h100v-100h-100v100z" />
    <glyph glyph-name="ellipsis" unicode="&#x2026;" 
d="M480 100h100v-100h-100v100zM240 100h100v-100h-100v100zM0 100h100v-100h-100v100z" />
    <glyph glyph-name="dagger" unicode="&#x2020;" 
d="M360 460h100v-100h-100v100zM240 580h100v-100h-100v100zM240 460h100v-100h-100v100zM240 340h100v-100h-100v100zM240 220h100v-100h-100v100zM240 100h100v-100h-100v100zM120 460h100v-100h-100v100z" />
    <glyph glyph-name="daggerdbl" unicode="&#x2021;" 
d="M360 460h100v-100h-100v100zM360 220h100v-100h-100v100zM240 580h100v-100h-100v100zM240 460h100v-100h-100v100zM240 340h100v-100h-100v100zM240 220h100v-100h-100v100zM240 100h100v-100h-100v100zM120 460h100v-100h-100v100zM120 220h100v-100h-100v100z" />
    <glyph glyph-name="perthousand" unicode="&#x2030;" 
d="M480 580h100v-100h-100v100zM480 100h100v-100h-100v100zM360 460h100v-100h-100v100zM240 340h100v-100h-100v100zM240 100h100v-100h-100v100zM120 220h100v-100h-100v100zM0 580h100v-100h-100v100zM0 100h100v-100h-100v100z" />
    <glyph glyph-name="less" unicode="&#x3c;" 
d="M360 580h100v-100h-100v100zM360 100h100v-100h-100v100zM240 460h100v-100h-100v100zM240 220h100v-100h-100v100zM120 340h100v-100h-100v100z" />
    <glyph glyph-name="greater" unicode="&#x3e;" 
d="M360 340h100v-100h-100v100zM240 460h100v-100h-100v100zM240 220h100v-100h-100v100zM120 580h100v-100h-100v100zM120 100h100v-100h-100v100z" />
    <glyph glyph-name="parenleft" unicode="(" 
d="M360 580h100v-100h-100v100zM360 100h100v-100h-100v100zM240 460h100v-100h-100v100zM240 340h100v-100h-100v100zM240 220h100v-100h-100v100z" />
    <glyph glyph-name="parenright" unicode=")" 
d="M240 460h100v-100h-100v100zM240 340h100v-100h-100v100zM240 220h100v-100h-100v100zM120 580h100v-100h-100v100zM120 100h100v-100h-100v100z" />
    <glyph glyph-name="asterisk" unicode="*" 
d="M360 460h100v-100h-100v100zM360 220h100v-100h-100v100zM240 340h100v-100h-100v100zM120 460h100v-100h-100v100zM120 220h100v-100h-100v100z" />
    <glyph glyph-name="at" unicode="@" 
d="M480 580h100v-100h-100v100zM480 460h100v-100h-100v100zM480 340h100v-100h-100v100zM480 100h100v-100h-100v100zM360 580h100v-100h-100v100zM360 340h100v-100h-100v100zM360 100h100v-100h-100v100zM240 580h100v-100h-100v100zM240 340h100v-100h-100v100zM240 100
h100v-100h-100v100zM120 580h100v-100h-100v100zM120 100h100v-100h-100v100zM0 580h100v-100h-100v100zM0 460h100v-100h-100v100zM0 340h100v-100h-100v100zM0 220h100v-100h-100v100zM0 100h100v-100h-100v100z" />
    <glyph glyph-name="question" unicode="?" 
d="M480 580h100v-100h-100v100zM480 460h100v-100h-100v100zM480 340h100v-100h-100v100zM360 580h100v-100h-100v100zM360 340h100v-100h-100v100zM240 580h100v-100h-100v100zM240 340h100v-100h-100v100zM240 100h100v-100h-100v100zM120 580h100v-100h-100v100zM220 240
h-100h100zM0 580h100v-100h-100v100zM100 240h-100h100z" />
    <glyph glyph-name="Euro" unicode="&#x20ac;" 
d="M480 580h100v-100h-100v100zM480 340h100v-100h-100v100zM480 100h100v-100h-100v100zM360 580h100v-100h-100v100zM360 340h100v-100h-100v100zM360 100h100v-100h-100v100zM240 580h100v-100h-100v100zM240 340h100v-100h-100v100zM240 100h100v-100h-100v100zM120 580
h100v-100h-100v100zM120 340h100v-100h-100v100zM120 100h100v-100h-100v100zM0 460h100v-100h-100v100zM0 340h100v-100h-100v100zM0 220h100v-100h-100v100z" />
    <glyph glyph-name="braceleft" unicode="{" 
d="M360 580h100v-100h-100v100zM360 100h100v-100h-100v100zM240 580h100v-100h-100v100zM240 460h100v-100h-100v100zM240 340h100v-100h-100v100zM240 220h100v-100h-100v100zM240 100h100v-100h-100v100zM120 340h100v-100h-100v100z" />
    <glyph glyph-name="braceright" unicode="}" 
d="M360 340h100v-100h-100v100zM240 580h100v-100h-100v100zM240 460h100v-100h-100v100zM240 340h100v-100h-100v100zM240 220h100v-100h-100v100zM240 100h100v-100h-100v100zM120 580h100v-100h-100v100zM120 100h100v-100h-100v100z" />
    <glyph glyph-name="grave" unicode="`" 
d="M360 460h100v-100h-100v100zM240 580h100v-100h-100v100z" />
    <glyph glyph-name="quoteleft" unicode="&#x2018;" 
d="M360 460h100v-100h-100v100zM240 580h100v-100h-100v100z" />
    <glyph glyph-name="quoteright" unicode="&#x2019;" 
d="M360 460h100v-100h-100v100zM240 580h100v-100h-100v100z" />
    <glyph glyph-name="quotedblleft" unicode="&#x201c;" 
d="M360 580h100v-100h-100v100zM360 460h100v-100h-100v100zM120 580h100v-100h-100v100zM120 460h100v-100h-100v100z" />
    <glyph glyph-name="quotedblright" unicode="&#x201d;" 
d="M360 580h100v-100h-100v100zM360 460h100v-100h-100v100zM120 580h100v-100h-100v100zM120 460h100v-100h-100v100z" />
    <glyph glyph-name="guilsinglleft" unicode="&#x2039;" 
d="M360 580h100v-100h-100v100zM360 100h100v-100h-100v100zM240 460h100v-100h-100v100zM240 220h100v-100h-100v100zM120 340h100v-100h-100v100z" />
    <glyph glyph-name="guilsinglright" unicode="&#x203a;" 
d="M360 340h100v-100h-100v100zM240 460h100v-100h-100v100zM240 220h100v-100h-100v100zM120 580h100v-100h-100v100zM120 100h100v-100h-100v100z" />
    <glyph glyph-name="asciicircum" unicode="^" 
d="M480 340h100v-100h-100v100zM360 460h100v-100h-100v100zM240 580h100v-100h-100v100zM120 460h100v-100h-100v100zM0 340h100v-100h-100v100z" />
    <glyph glyph-name="afii10062" unicode="&#x40e;" 
d="M480 580h100v-100h-100v100zM480 460h100v-100h-100v100zM360 340h100v-100h-100v100zM240 580h100v-100h-100v100zM240 220h100v-100h-100v100zM240 100h100v-100h-100v100zM120 340h100v-100h-100v100zM0 580h100v-100h-100v100zM0 460h100v-100h-100v100z" />
    <glyph glyph-name="afii10110" unicode="&#x45e;" 
d="M480 580h100v-100h-100v100zM480 460h100v-100h-100v100zM360 340h100v-100h-100v100zM240 580h100v-100h-100v100zM240 220h100v-100h-100v100zM240 100h100v-100h-100v100zM120 340h100v-100h-100v100zM0 580h100v-100h-100v100zM0 460h100v-100h-100v100z" />
    <glyph glyph-name="afii10057" unicode="&#x408;" 
d="M480 580h100v-100h-100v100zM480 460h100v-100h-100v100zM480 340h100v-100h-100v100zM480 220h100v-100h-100v100zM360 580h100v-100h-100v100zM360 100h100v-100h-100v100zM240 580h100v-100h-100v100zM240 100h100v-100h-100v100zM120 580h100v-100h-100v100zM120 100
h100v-100h-100v100zM0 580h100v-100h-100v100zM0 220h100v-100h-100v100z" />
    <glyph glyph-name="afii10105" unicode="&#x458;" 
d="M480 580h100v-100h-100v100zM480 460h100v-100h-100v100zM480 340h100v-100h-100v100zM480 220h100v-100h-100v100zM360 580h100v-100h-100v100zM360 100h100v-100h-100v100zM240 580h100v-100h-100v100zM240 100h100v-100h-100v100zM120 580h100v-100h-100v100zM120 100
h100v-100h-100v100zM0 580h100v-100h-100v100zM0 220h100v-100h-100v100z" />
    <glyph glyph-name="afii10054" unicode="&#x405;" 
d="M480 580h100v-100h-100v100zM480 340h100v-100h-100v100zM480 220h100v-100h-100v100zM480 100h100v-100h-100v100zM360 580h100v-100h-100v100zM360 340h100v-100h-100v100zM360 100h100v-100h-100v100zM240 580h100v-100h-100v100zM240 340h100v-100h-100v100zM240 100
h100v-100h-100v100zM120 580h100v-100h-100v100zM120 340h100v-100h-100v100zM120 100h100v-100h-100v100zM0 580h100v-100h-100v100zM0 460h100v-100h-100v100zM0 340h100v-100h-100v100zM0 100h100v-100h-100v100z" />
    <glyph glyph-name="afii10102" unicode="&#x455;" 
d="M480 580h100v-100h-100v100zM480 340h100v-100h-100v100zM480 220h100v-100h-100v100zM480 100h100v-100h-100v100zM360 580h100v-100h-100v100zM360 340h100v-100h-100v100zM360 100h100v-100h-100v100zM240 580h100v-100h-100v100zM240 340h100v-100h-100v100zM240 100
h100v-100h-100v100zM120 580h100v-100h-100v100zM120 340h100v-100h-100v100zM120 100h100v-100h-100v100zM0 580h100v-100h-100v100zM0 460h100v-100h-100v100zM0 340h100v-100h-100v100zM0 100h100v-100h-100v100z" />
    <glyph glyph-name="quotesinglbase" unicode="&#x201a;" 
d="M360 100h100v-100h-100v100zM240 220h100v-100h-100v100z" />
    <glyph glyph-name="asciitilde" unicode="~" 
d="M360 460h100v-100h-100v100zM240 340h100v-100h-100v100zM120 460h100v-100h-100v100zM0 340h100v-100h-100v100z" />
    <glyph glyph-name="periodcentered" unicode="&#xb7;" 
d="M240 340h100v-100h-100v100z" />
    <glyph glyph-name="afii10055" unicode="&#x406;" 
d="M360 580h100v-100h-100v100zM360 100h100v-100h-100v100zM240 580h100v-100h-100v100zM240 460h100v-100h-100v100zM240 340h100v-100h-100v100zM240 220h100v-100h-100v100zM240 100h100v-100h-100v100zM120 580h100v-100h-100v100zM120 100h100v-100h-100v100z" />
    <glyph glyph-name="afii10103" unicode="&#x456;" 
d="M360 580h100v-100h-100v100zM360 100h100v-100h-100v100zM240 580h100v-100h-100v100zM240 460h100v-100h-100v100zM240 340h100v-100h-100v100zM240 220h100v-100h-100v100zM240 100h100v-100h-100v100zM120 580h100v-100h-100v100zM120 100h100v-100h-100v100z" />
    <glyph glyph-name="afii10053" unicode="&#x404;" 
d="M480 580h100v-100h-100v100zM480 100h100v-100h-100v100zM360 580h100v-100h-100v100zM360 100h100v-100h-100v100zM240 580h100v-100h-100v100zM240 340h100v-100h-100v100zM240 100h100v-100h-100v100zM120 580h100v-100h-100v100zM120 340h100v-100h-100v100zM120 100
h100v-100h-100v100zM0 460h100v-100h-100v100zM0 340h100v-100h-100v100zM0 220h100v-100h-100v100z" />
    <glyph glyph-name="afii10101" unicode="&#x454;" 
d="M480 580h100v-100h-100v100zM480 100h100v-100h-100v100zM360 580h100v-100h-100v100zM360 100h100v-100h-100v100zM240 580h100v-100h-100v100zM240 340h100v-100h-100v100zM240 100h100v-100h-100v100zM120 580h100v-100h-100v100zM120 340h100v-100h-100v100zM120 100
h100v-100h-100v100zM0 460h100v-100h-100v100zM0 340h100v-100h-100v100zM0 220h100v-100h-100v100z" />
    <glyph glyph-name="afii10023" unicode="&#x401;" 
d="M480 580h100v-100h-100v100zM480 100h100v-100h-100v100zM360 580h100v-100h-100v100zM360 340h100v-100h-100v100zM360 100h100v-100h-100v100zM240 580h100v-100h-100v100zM240 340h100v-100h-100v100zM240 100h100v-100h-100v100zM120 580h100v-100h-100v100zM120 340
h100v-100h-100v100zM120 100h100v-100h-100v100zM0 580h100v-100h-100v100zM0 460h100v-100h-100v100zM0 340h100v-100h-100v100zM0 220h100v-100h-100v100zM0 100h100v-100h-100v100z" />
    <glyph glyph-name="afii10071" unicode="&#x451;" 
d="M480 580h100v-100h-100v100zM480 100h100v-100h-100v100zM360 580h100v-100h-100v100zM360 340h100v-100h-100v100zM360 100h100v-100h-100v100zM240 580h100v-100h-100v100zM240 340h100v-100h-100v100zM240 100h100v-100h-100v100zM120 580h100v-100h-100v100zM120 340
h100v-100h-100v100zM120 100h100v-100h-100v100zM0 580h100v-100h-100v100zM0 460h100v-100h-100v100zM0 340h100v-100h-100v100zM0 220h100v-100h-100v100zM0 100h100v-100h-100v100z" />
    <glyph glyph-name="afii10056" unicode="&#x407;" 
d="M360 580h100v-100h-100v100zM240 460h100v-100h-100v100zM240 340h100v-100h-100v100zM240 220h100v-100h-100v100zM240 100h100v-100h-100v100zM120 580h100v-100h-100v100z" />
    <glyph glyph-name="afii10104" unicode="&#x457;" 
d="M360 580h100v-100h-100v100zM240 460h100v-100h-100v100zM240 340h100v-100h-100v100zM240 220h100v-100h-100v100zM240 100h100v-100h-100v100zM120 580h100v-100h-100v100z" />
    <glyph glyph-name="afii10052" unicode="&#x403;" 
d="M480 460h100v-100h-100v100zM360 460h100v-100h-100v100zM240 580h100v-100h-100v100zM240 460h100v-100h-100v100zM120 460h100v-100h-100v100zM0 460h100v-100h-100v100zM0 340h100v-100h-100v100zM0 220h100v-100h-100v100zM0 100h100v-100h-100v100z" />
    <glyph glyph-name="afii10100" unicode="&#x453;" 
d="M480 460h100v-100h-100v100zM360 460h100v-100h-100v100zM240 580h100v-100h-100v100zM240 460h100v-100h-100v100zM120 460h100v-100h-100v100zM0 460h100v-100h-100v100zM0 340h100v-100h-100v100zM0 220h100v-100h-100v100zM0 100h100v-100h-100v100z" />
    <glyph glyph-name="afii10050" unicode="&#x490;" 
d="M480 580h100v-100h-100v100zM480 460h100v-100h-100v100zM360 460h100v-100h-100v100zM240 460h100v-100h-100v100zM120 460h100v-100h-100v100zM0 460h100v-100h-100v100zM0 340h100v-100h-100v100zM0 220h100v-100h-100v100zM0 100h100v-100h-100v100z" />
    <glyph glyph-name="afii10098" unicode="&#x491;" 
d="M480 580h100v-100h-100v100zM480 460h100v-100h-100v100zM360 460h100v-100h-100v100zM240 460h100v-100h-100v100zM120 460h100v-100h-100v100zM0 460h100v-100h-100v100zM0 340h100v-100h-100v100zM0 220h100v-100h-100v100zM0 100h100v-100h-100v100z" />
    <glyph glyph-name="copyright" unicode="&#xa9;" 
d="M480 580h100v-100h-100v100zM480 100h100v-100h-100v100zM360 460h100v-100h-100v100zM360 220h100v-100h-100v100zM240 460h100v-100h-100v100zM240 220h100v-100h-100v100zM120 460h100v-100h-100v100zM120 340h100v-100h-100v100zM120 220h100v-100h-100v100zM0 580
h100v-100h-100v100zM0 100h100v-100h-100v100z" />
    <glyph glyph-name="registered" unicode="&#xae;" 
d="M480 580h100v-100h-100v100zM360 460h100v-100h-100v100zM360 340h100v-100h-100v100zM360 100h100v-100h-100v100zM240 460h100v-100h-100v100zM240 220h100v-100h-100v100zM120 460h100v-100h-100v100zM120 340h100v-100h-100v100zM120 220h100v-100h-100v100zM120 100
h100v-100h-100v100zM0 580h100v-100h-100v100z" />
    <glyph glyph-name="quotedblbase" unicode="&#x201e;" 
d="M360 220h100v-100h-100v100zM360 100h100v-100h-100v100zM120 220h100v-100h-100v100zM120 100h100v-100h-100v100z" />
    <glyph glyph-name="brokenbar" unicode="&#xa6;" 
d="M240 580h100v-100h-100v100zM240 460h100v-100h-100v100zM240 220h100v-100h-100v100zM240 100h100v-100h-100v100z" />
    <glyph glyph-name="section" unicode="&#xa7;" 
d="M360 580h100v-100h-100v100zM360 340h100v-100h-100v100zM360 220h100v-100h-100v100zM360 100h100v-100h-100v100zM240 580h100v-100h-100v100zM240 340h100v-100h-100v100zM240 100h100v-100h-100v100zM120 580h100v-100h-100v100zM120 460h100v-100h-100v100zM120 340
h100v-100h-100v100zM120 100h100v-100h-100v100z" />
    <glyph glyph-name="logicalnot" unicode="&#xac;" 
d="M360 460h100v-100h-100v100zM360 340h100v-100h-100v100zM240 460h100v-100h-100v100zM120 460h100v-100h-100v100z" />
    <glyph glyph-name="uni00AD" unicode="&#xad;" 
d="M360 340h100v-100h-100v100zM240 340h100v-100h-100v100zM120 340h100v-100h-100v100z" />
    <glyph glyph-name="endash" unicode="&#x2013;" 
d="M360 340h100v-100h-100v100zM240 340h100v-100h-100v100zM120 340h100v-100h-100v100z" />
    <glyph glyph-name="emdash" unicode="&#x2014;" 
d="M480 340h100v-100h-100v100zM360 340h100v-100h-100v100zM240 340h100v-100h-100v100zM120 340h100v-100h-100v100zM0 340h100v-100h-100v100z" />
    <glyph glyph-name="plusminus" unicode="&#xb1;" 
d="M360 460h100v-100h-100v100zM360 100h100v-100h-100v100zM240 580h100v-100h-100v100zM240 460h100v-100h-100v100zM240 340h100v-100h-100v100zM240 100h100v-100h-100v100zM120 460h100v-100h-100v100zM120 0h100v100h-100v-100z" />
    <glyph glyph-name="guillemotleft" unicode="&#xab;" 
d="M480 580h100v-100h-100v100zM480 100h100v-100h-100v100zM360 460h100v-100h-100v100zM360 220h100v-100h-100v100zM240 580h100v-100h-100v100zM240 340h100v-100h-100v100zM240 100h100v-100h-100v100zM120 460h100v-100h-100v100zM120 220h100v-100h-100v100zM0 340
h100v-100h-100v100z" />
    <glyph glyph-name="guillemotright" unicode="&#xbb;" 
d="M480 340h100v-100h-100v100zM360 460h100v-100h-100v100zM360 220h100v-100h-100v100zM240 580h100v-100h-100v100zM240 340h100v-100h-100v100zM240 100h100v-100h-100v100zM120 460h100v-100h-100v100zM120 220h100v-100h-100v100zM0 580h100v-100h-100v100zM0 100h100
v-100h-100v100z" />
    <glyph glyph-name="afii61352" unicode="&#x2116;" 
d="M480 580h100v-100h-100v100zM480 340h100v-100h-100v100zM480 220h100v-100h-100v100zM480 100h100v-100h-100v100zM360 220h100v-100h-100v100zM240 340h100v-100h-100v100zM120 460h100v-100h-100v100zM0 580h100v-100h-100v100zM0 460h100v-100h-100v100zM0 340h100
v-100h-100v100zM0 220h100v-100h-100v100zM0 100h100v-100h-100v100z" />
    <glyph glyph-name="afii10145" unicode="&#x40f;" 
d="M480 580h100v-100h-100v100zM480 460h100v-100h-100v100zM480 340h100v-100h-100v100zM480 220h100v-100h-100v100zM360 220h100v-100h-100v100zM240 220h100v-100h-100v100zM240 100h100v-100h-100v100zM120 220h100v-100h-100v100zM0 580h100v-100h-100v100zM0 460h100
v-100h-100v100zM0 340h100v-100h-100v100zM0 220h100v-100h-100v100z" />
    <glyph glyph-name="afii10193" unicode="&#x45f;" 
d="M480 580h100v-100h-100v100zM480 460h100v-100h-100v100zM480 340h100v-100h-100v100zM480 220h100v-100h-100v100zM360 220h100v-100h-100v100zM240 220h100v-100h-100v100zM240 100h100v-100h-100v100zM120 220h100v-100h-100v100zM0 580h100v-100h-100v100zM0 460h100
v-100h-100v100zM0 340h100v-100h-100v100zM0 220h100v-100h-100v100z" />
    <glyph glyph-name="afii10051" unicode="&#x402;" 
d="M480 340h100v-100h-100v100zM480 220h100v-100h-100v100zM480 100h100v-100h-100v100zM360 340h100v-100h-100v100zM360 100h100v-100h-100v100zM240 580h100v-100h-100v100zM240 340h100v-100h-100v100zM240 100h100v-100h-100v100zM120 580h100v-100h-100v100zM120 340
h100v-100h-100v100zM0 580h100v-100h-100v100zM0 460h100v-100h-100v100zM0 340h100v-100h-100v100zM0 220h100v-100h-100v100zM0 100h100v-100h-100v100z" />
    <glyph glyph-name="afii10099" unicode="&#x452;" 
d="M480 340h100v-100h-100v100zM480 220h100v-100h-100v100zM480 100h100v-100h-100v100zM360 340h100v-100h-100v100zM360 100h100v-100h-100v100zM240 580h100v-100h-100v100zM240 340h100v-100h-100v100zM240 100h100v-100h-100v100zM120 580h100v-100h-100v100zM120 340
h100v-100h-100v100zM0 580h100v-100h-100v100zM0 460h100v-100h-100v100zM0 340h100v-100h-100v100zM0 220h100v-100h-100v100zM0 100h100v-100h-100v100z" />
    <glyph glyph-name="afii10060" unicode="&#x40b;" 
d="M480 340h100v-100h-100v100zM480 220h100v-100h-100v100zM480 100h100v-100h-100v100zM360 340h100v-100h-100v100zM240 580h100v-100h-100v100zM240 340h100v-100h-100v100zM120 580h100v-100h-100v100zM120 340h100v-100h-100v100zM0 580h100v-100h-100v100zM0 460h100
v-100h-100v100zM0 340h100v-100h-100v100zM0 220h100v-100h-100v100zM0 100h100v-100h-100v100z" />
    <glyph glyph-name="afii10108" unicode="&#x45b;" 
d="M480 340h100v-100h-100v100zM480 220h100v-100h-100v100zM480 100h100v-100h-100v100zM360 340h100v-100h-100v100zM240 580h100v-100h-100v100zM240 340h100v-100h-100v100zM120 580h100v-100h-100v100zM120 340h100v-100h-100v100zM0 580h100v-100h-100v100zM0 460h100
v-100h-100v100zM0 340h100v-100h-100v100zM0 220h100v-100h-100v100zM0 100h100v-100h-100v100z" />
    <glyph glyph-name="bullet" unicode="&#x2022;" 
d="M360 460h100v-100h-100v100zM360 340h100v-100h-100v100zM360 220h100v-100h-100v100zM240 460h100v-100h-100v100zM240 340h100v-100h-100v100zM240 220h100v-100h-100v100zM120 460h100v-100h-100v100zM120 340h100v-100h-100v100zM120 220h100v-100h-100v100z" />
    <glyph glyph-name="degree" unicode="&#xb0;" 
d="M360 580h100v-100h-100v100zM360 460h100v-100h-100v100zM360 340h100v-100h-100v100zM240 580h100v-100h-100v100zM240 340h100v-100h-100v100zM120 580h100v-100h-100v100zM120 460h100v-100h-100v100zM120 340h100v-100h-100v100z" />
    <glyph glyph-name="afii10061" unicode="&#x40c;" 
d="M480 580h100v-100h-100v100zM480 100h100v-100h-100v100zM360 460h100v-100h-100v100zM360 220h100v-100h-100v100zM240 580h100v-100h-100v100zM240 340h100v-100h-100v100zM120 340h100v-100h-100v100zM0 580h100v-100h-100v100zM0 460h100v-100h-100v100zM0 340h100
v-100h-100v100zM0 220h100v-100h-100v100zM0 100h100v-100h-100v100z" />
    <glyph glyph-name="afii10109" unicode="&#x45c;" 
d="M480 580h100v-100h-100v100zM480 100h100v-100h-100v100zM360 460h100v-100h-100v100zM360 220h100v-100h-100v100zM240 580h100v-100h-100v100zM240 340h100v-100h-100v100zM120 340h100v-100h-100v100zM0 580h100v-100h-100v100zM0 460h100v-100h-100v100zM0 340h100
v-100h-100v100zM0 220h100v-100h-100v100zM0 100h100v-100h-100v100z" />
    <glyph glyph-name="mu" unicode="&#xb5;" 
d="M480 580h100v-100h-100v100zM480 460h100v-100h-100v100zM480 340h100v-100h-100v100zM480 220h100v-100h-100v100zM480 100h100v-100h-100v100zM360 220h100v-100h-100v100zM240 100h100v-100h-100v100zM120 220h100v-100h-100v100zM0 580h100v-100h-100v100zM0 460h100
v-100h-100v100zM0 340h100v-100h-100v100zM0 220h100v-100h-100v100zM0 100h100v-100h-100v100z" />
    <glyph glyph-name="mu" unicode="&#x3bc;" 
d="M480 580h100v-100h-100v100zM480 460h100v-100h-100v100zM480 340h100v-100h-100v100zM480 220h100v-100h-100v100zM480 100h100v-100h-100v100zM360 220h100v-100h-100v100zM240 100h100v-100h-100v100zM120 220h100v-100h-100v100zM0 580h100v-100h-100v100zM0 460h100
v-100h-100v100zM0 340h100v-100h-100v100zM0 220h100v-100h-100v100zM0 100h100v-100h-100v100z" />
    <glyph glyph-name="paragraph" unicode="&#xb6;" 
d="M480 580h100v-100h-100v100zM360 580h100v-100h-100v100zM360 460h100v-100h-100v100zM360 340h100v-100h-100v100zM360 220h100v-100h-100v100zM360 100h100v-100h-100v100zM240 580h100v-100h-100v100zM120 580h100v-100h-100v100zM120 460h100v-100h-100v100zM120 340
h100v-100h-100v100zM120 220h100v-100h-100v100zM120 100h100v-100h-100v100zM0 580h100v-100h-100v100zM0 460h100v-100h-100v100z" />
    <glyph glyph-name="currency" unicode="&#xa4;" 
d="M480 580h100v-100h-100v100zM480 100h100v-100h-100v100zM360 460h100v-100h-100v100zM360 340h100v-100h-100v100zM360 220h100v-100h-100v100zM240 460h100v-100h-100v100zM240 220h100v-100h-100v100zM120 460h100v-100h-100v100zM120 340h100v-100h-100v100zM120 220
h100v-100h-100v100zM0 580h100v-100h-100v100zM0 100h100v-100h-100v100z" />
    <glyph glyph-name="afii10059" unicode="&#x40a;" 
d="M480 340h100v-100h-100v100zM480 220h100v-100h-100v100zM480 100h100v-100h-100v100zM360 340h100v-100h-100v100zM360 100h100v-100h-100v100zM240 580h100v-100h-100v100zM240 460h100v-100h-100v100zM240 340h100v-100h-100v100zM240 220h100v-100h-100v100zM240 100
h100v-100h-100v100zM120 340h100v-100h-100v100zM0 580h100v-100h-100v100zM0 460h100v-100h-100v100zM0 340h100v-100h-100v100zM0 220h100v-100h-100v100zM0 100h100v-100h-100v100z" />
    <glyph glyph-name="afii10107" unicode="&#x45a;" 
d="M480 340h100v-100h-100v100zM480 220h100v-100h-100v100zM480 100h100v-100h-100v100zM360 340h100v-100h-100v100zM360 100h100v-100h-100v100zM240 580h100v-100h-100v100zM240 460h100v-100h-100v100zM240 340h100v-100h-100v100zM240 220h100v-100h-100v100zM240 100
h100v-100h-100v100zM120 340h100v-100h-100v100zM0 580h100v-100h-100v100zM0 460h100v-100h-100v100zM0 340h100v-100h-100v100zM0 220h100v-100h-100v100zM0 100h100v-100h-100v100z" />
    <glyph glyph-name="afii10058" unicode="&#x409;" 
d="M480 340h100v-100h-100v100zM480 220h100v-100h-100v100zM480 100h100v-100h-100v100zM360 340h100v-100h-100v100zM360 100h100v-100h-100v100zM240 580h100v-100h-100v100zM240 460h100v-100h-100v100zM240 340h100v-100h-100v100zM240 220h100v-100h-100v100zM240 100
h100v-100h-100v100zM120 580h100v-100h-100v100zM0 460h100v-100h-100v100zM0 340h100v-100h-100v100zM0 220h100v-100h-100v100zM0 100h100v-100h-100v100z" />
    <glyph glyph-name="afii10106" unicode="&#x459;" 
d="M480 340h100v-100h-100v100zM480 220h100v-100h-100v100zM480 100h100v-100h-100v100zM360 340h100v-100h-100v100zM360 100h100v-100h-100v100zM240 580h100v-100h-100v100zM240 460h100v-100h-100v100zM240 340h100v-100h-100v100zM240 220h100v-100h-100v100zM240 100
h100v-100h-100v100zM120 580h100v-100h-100v100zM0 460h100v-100h-100v100zM0 340h100v-100h-100v100zM0 220h100v-100h-100v100zM0 100h100v-100h-100v100z" />
    <glyph glyph-name="ampersand" unicode="&#x26;" 
d="M480 340h100v-100h-100v100zM480 100h100v-100h-100v100zM360 580h100v-100h-100v100zM360 460h100v-100h-100v100zM360 340h100v-100h-100v100zM360 220h100v-100h-100v100zM360 100h100v-100h-100v100zM240 580h100v-100h-100v100zM240 340h100v-100h-100v100zM240 100
h100v-100h-100v100zM120 580h100v-100h-100v100zM120 340h100v-100h-100v100zM120 100h100v-100h-100v100zM0 580h100v-100h-100v100zM0 460h100v-100h-100v100zM0 340h100v-100h-100v100zM0 220h100v-100h-100v100zM0 100h100v-100h-100v100z" />
    <glyph glyph-name="trademark" unicode="&#x2122;" 
d="M600 580h100v-100h-100v100zM600 460h100v-100h-100v100zM600 340h100v-100h-100v100zM600 220h100v-100h-100v100zM600 100h100v-100h-100v100zM480 580h100v-100h-100v100zM480 460h100v-100h-100v100zM480 340h100v-100h-100v100zM480 220h100v-100h-100v100zM480 100
h100v-100h-100v100zM360 580h100v-100h-100v100zM360 460h100v-100h-100v100zM360 340h100v-100h-100v100zM360 220h100v-100h-100v100zM360 100h100v-100h-100v100zM240 580h100v-100h-100v100zM240 460h100v-100h-100v100zM240 340h100v-100h-100v100zM240 220h100v-100
h-100v100zM240 100h100v-100h-100v100zM120 580h100v-100h-100v100zM120 460h100v-100h-100v100zM120 340h100v-100h-100v100zM120 220h100v-100h-100v100zM120 100h100v-100h-100v100zM0 580h100v-100h-100v100zM0 460h100v-100h-100v100zM0 340h100v-100h-100v100zM0 220
h100v-100h-100v100zM0 100h100v-100h-100v100z" />
  </font>
</defs>
</svg>
